<svg xmlns="http://www.w3.org/2000/svg" xmlns:xlink="http://www.w3.org/1999/xlink" width="190" zoomAndPan="magnify" viewBox="0 0 142.5 33.749998" height="45" preserveAspectRatio="xMidYMid meet" version="1.0"><defs><clipPath id="abaa8d13dd"><path d="M 0.277344 0 L 141.726562 0 L 141.726562 33.5 L 0.277344 33.5 Z M 0.277344 0 " clip-rule="nonzero"/></clipPath><clipPath id="8b59316cc6"><path d="M 28.125 7.777344 L 45.1875 7.777344 L 45.1875 18.625 L 28.125 18.625 Z M 28.125 7.777344 " clip-rule="nonzero"/></clipPath><clipPath id="3adbe7dccc"><path d="M 45.179688 13.671875 C 45.175781 13.601562 45.164062 13.523438 45.15625 13.441406 C 45.152344 13.398438 45.144531 13.355469 45.140625 13.3125 C 45.132812 13.269531 45.125 13.226562 45.117188 13.179688 C 45.050781 12.8125 44.925781 12.375 44.703125 11.929688 C 44.484375 11.480469 44.179688 11.015625 43.792969 10.589844 C 43.023438 9.730469 41.949219 9.015625 40.742188 8.535156 C 40.664062 8.503906 40.589844 8.476562 40.511719 8.449219 C 40.4375 8.421875 40.359375 8.394531 40.28125 8.367188 C 40.203125 8.339844 40.125 8.316406 40.046875 8.289062 C 39.96875 8.261719 39.890625 8.238281 39.8125 8.214844 C 39.730469 8.195312 39.652344 8.171875 39.570312 8.148438 C 39.492188 8.125 39.410156 8.109375 39.332031 8.089844 C 39.25 8.070312 39.167969 8.046875 39.085938 8.03125 C 39.003906 8.015625 38.921875 8 38.839844 7.984375 C 38.1875 7.851562 37.511719 7.789062 36.84375 7.777344 C 36.171875 7.769531 35.5 7.808594 34.839844 7.914062 C 34.675781 7.941406 34.511719 7.96875 34.351562 8.003906 C 34.269531 8.019531 34.1875 8.035156 34.109375 8.054688 C 34.027344 8.074219 33.949219 8.09375 33.867188 8.113281 C 33.707031 8.148438 33.550781 8.199219 33.394531 8.242188 C 33.238281 8.289062 33.085938 8.339844 32.929688 8.390625 C 32.320312 8.609375 31.746094 8.875 31.21875 9.191406 C 30.695312 9.507812 30.222656 9.871094 29.816406 10.261719 C 29.410156 10.652344 29.082031 11.078125 28.828125 11.496094 C 28.574219 11.910156 28.410156 12.324219 28.304688 12.671875 C 28.28125 12.761719 28.257812 12.84375 28.238281 12.925781 C 28.21875 13.003906 28.207031 13.082031 28.191406 13.152344 C 28.179688 13.222656 28.167969 13.285156 28.160156 13.347656 C 28.152344 13.40625 28.148438 13.460938 28.140625 13.511719 C 28.136719 13.558594 28.132812 13.605469 28.128906 13.640625 C 28.128906 13.679688 28.128906 13.710938 28.128906 13.738281 C 28.125 13.789062 28.125 13.8125 28.125 13.8125 C 28.125 13.8125 28.132812 13.789062 28.140625 13.738281 C 28.148438 13.714844 28.152344 13.683594 28.164062 13.648438 C 28.171875 13.609375 28.183594 13.570312 28.199219 13.523438 C 28.210938 13.476562 28.226562 13.421875 28.246094 13.367188 C 28.261719 13.308594 28.285156 13.25 28.308594 13.183594 C 28.332031 13.117188 28.359375 13.046875 28.390625 12.976562 C 28.421875 12.902344 28.453125 12.828125 28.492188 12.746094 C 28.640625 12.429688 28.859375 12.074219 29.144531 11.722656 C 29.429688 11.371094 29.785156 11.023438 30.195312 10.710938 C 30.605469 10.394531 31.070312 10.113281 31.578125 9.867188 C 31.914062 9.703125 32.273438 9.554688 32.644531 9.429688 L 32.5625 9.460938 L 32.457031 9.503906 L 32.242188 9.597656 C 32.167969 9.628906 32.097656 9.664062 32.027344 9.699219 L 31.921875 9.746094 L 31.820312 9.804688 C 31.75 9.839844 31.679688 9.875 31.609375 9.914062 C 31.542969 9.953125 31.476562 9.992188 31.410156 10.03125 C 31.140625 10.195312 30.878906 10.367188 30.636719 10.566406 C 30.574219 10.617188 30.515625 10.664062 30.457031 10.714844 C 30.398438 10.769531 30.339844 10.820312 30.28125 10.871094 C 30.167969 10.980469 30.054688 11.085938 29.949219 11.203125 C 29.84375 11.316406 29.746094 11.4375 29.648438 11.558594 C 29.554688 11.683594 29.464844 11.804688 29.382812 11.9375 C 29.296875 12.066406 29.226562 12.203125 29.152344 12.339844 C 29.121094 12.40625 29.089844 12.476562 29.058594 12.546875 L 29.011719 12.648438 C 29 12.683594 28.984375 12.71875 28.972656 12.753906 C 28.957031 12.789062 28.945312 12.824219 28.933594 12.859375 C 28.917969 12.894531 28.910156 12.933594 28.898438 12.96875 C 28.878906 13.039062 28.855469 13.109375 28.835938 13.179688 C 28.804688 13.324219 28.769531 13.464844 28.753906 13.609375 C 28.730469 13.75 28.726562 13.890625 28.714844 14.027344 C 28.714844 14.097656 28.71875 14.167969 28.71875 14.234375 C 28.71875 14.265625 28.71875 14.300781 28.71875 14.332031 C 28.722656 14.367188 28.726562 14.398438 28.730469 14.433594 C 28.773438 14.960938 28.925781 15.417969 29.109375 15.785156 C 29.132812 15.828125 29.15625 15.871094 29.179688 15.917969 C 29.203125 15.960938 29.226562 16.003906 29.25 16.042969 C 29.300781 16.121094 29.347656 16.199219 29.398438 16.269531 C 29.449219 16.339844 29.5 16.40625 29.546875 16.46875 C 29.59375 16.527344 29.644531 16.582031 29.6875 16.636719 C 29.734375 16.691406 29.78125 16.738281 29.824219 16.78125 C 29.867188 16.828125 29.90625 16.867188 29.945312 16.90625 C 30.023438 16.976562 30.089844 17.035156 30.144531 17.085938 C 30.261719 17.175781 30.320312 17.222656 30.320312 17.222656 C 30.320312 17.222656 30.273438 17.160156 30.1875 17.046875 C 30.148438 16.984375 30.097656 16.914062 30.039062 16.824219 C 30.007812 16.78125 29.980469 16.734375 29.949219 16.683594 C 29.917969 16.628906 29.882812 16.578125 29.851562 16.519531 C 29.816406 16.460938 29.785156 16.398438 29.75 16.332031 C 29.71875 16.265625 29.683594 16.195312 29.648438 16.121094 C 29.617188 16.050781 29.585938 15.96875 29.554688 15.890625 C 29.535156 15.851562 29.523438 15.808594 29.507812 15.765625 C 29.492188 15.722656 29.480469 15.679688 29.464844 15.636719 C 29.351562 15.28125 29.289062 14.863281 29.308594 14.417969 C 29.3125 14.390625 29.3125 14.363281 29.3125 14.335938 C 29.316406 14.308594 29.320312 14.28125 29.320312 14.25 C 29.328125 14.195312 29.332031 14.136719 29.339844 14.082031 C 29.363281 13.96875 29.378906 13.851562 29.410156 13.738281 C 29.4375 13.625 29.480469 13.511719 29.515625 13.394531 C 29.539062 13.339844 29.5625 13.285156 29.585938 13.226562 C 29.597656 13.199219 29.609375 13.171875 29.621094 13.144531 C 29.636719 13.117188 29.648438 13.089844 29.664062 13.058594 C 29.675781 13.03125 29.691406 13.003906 29.707031 12.976562 L 29.726562 12.933594 L 29.75 12.894531 C 29.757812 12.878906 29.765625 12.867188 29.773438 12.851562 C 29.742188 12.921875 29.707031 12.988281 29.675781 13.058594 C 29.53125 13.402344 29.4375 13.769531 29.425781 14.140625 C 29.40625 14.507812 29.453125 14.875 29.558594 15.21875 C 29.667969 15.5625 29.828125 15.882812 30.023438 16.167969 C 30.222656 16.453125 30.453125 16.703125 30.695312 16.925781 C 30.941406 17.148438 31.207031 17.339844 31.472656 17.507812 C 31.738281 17.671875 32.007812 17.816406 32.277344 17.933594 C 32.3125 17.949219 32.34375 17.964844 32.378906 17.980469 C 32.410156 17.992188 32.445312 18.007812 32.476562 18.019531 C 32.546875 18.046875 32.613281 18.074219 32.675781 18.101562 C 32.8125 18.148438 32.941406 18.199219 33.070312 18.234375 C 33.589844 18.398438 34.082031 18.496094 34.515625 18.550781 C 34.953125 18.609375 35.335938 18.621094 35.648438 18.625 C 35.804688 18.625 35.945312 18.621094 36.066406 18.613281 C 36.1875 18.605469 36.292969 18.601562 36.375 18.59375 C 36.539062 18.578125 36.628906 18.570312 36.628906 18.570312 C 36.628906 18.570312 36.542969 18.558594 36.375 18.535156 C 36.292969 18.527344 36.191406 18.507812 36.074219 18.492188 C 35.953125 18.472656 35.816406 18.449219 35.667969 18.421875 C 35.363281 18.367188 35 18.285156 34.59375 18.167969 C 34.1875 18.054688 33.738281 17.894531 33.277344 17.683594 C 33.160156 17.632812 33.046875 17.574219 32.925781 17.515625 C 32.871094 17.484375 32.8125 17.453125 32.753906 17.421875 C 32.722656 17.40625 32.695312 17.390625 32.664062 17.375 C 32.636719 17.359375 32.605469 17.34375 32.578125 17.324219 C 32.34375 17.191406 32.113281 17.039062 31.894531 16.871094 C 31.671875 16.703125 31.460938 16.519531 31.269531 16.320312 C 31.078125 16.117188 30.90625 15.898438 30.765625 15.667969 C 30.625 15.441406 30.523438 15.199219 30.460938 14.953125 C 30.398438 14.707031 30.375 14.457031 30.394531 14.207031 C 30.40625 14.035156 30.441406 13.867188 30.496094 13.699219 C 30.472656 13.8125 30.460938 13.921875 30.453125 14.027344 C 30.445312 14.316406 30.5 14.570312 30.578125 14.78125 C 30.652344 14.996094 30.765625 15.164062 30.867188 15.300781 C 30.882812 15.316406 30.894531 15.332031 30.90625 15.347656 C 30.917969 15.363281 30.929688 15.378906 30.945312 15.394531 C 30.96875 15.421875 30.992188 15.449219 31.015625 15.476562 C 31.0625 15.523438 31.105469 15.5625 31.136719 15.597656 C 31.171875 15.628906 31.203125 15.652344 31.21875 15.667969 C 31.238281 15.683594 31.246094 15.691406 31.246094 15.691406 C 31.246094 15.691406 31.242188 15.683594 31.230469 15.660156 C 31.21875 15.636719 31.203125 15.605469 31.183594 15.5625 C 31.164062 15.519531 31.140625 15.46875 31.117188 15.40625 C 31.105469 15.378906 31.09375 15.34375 31.082031 15.3125 C 31.074219 15.292969 31.066406 15.277344 31.0625 15.257812 C 31.054688 15.242188 31.050781 15.222656 31.046875 15.203125 C 30.996094 15.054688 30.960938 14.878906 30.953125 14.695312 C 30.945312 14.511719 30.96875 14.316406 31.027344 14.117188 C 31.09375 13.917969 31.191406 13.710938 31.363281 13.488281 L 31.394531 13.445312 L 31.429688 13.402344 C 31.453125 13.375 31.472656 13.347656 31.5 13.316406 C 31.527344 13.289062 31.554688 13.261719 31.578125 13.230469 C 31.605469 13.203125 31.636719 13.175781 31.664062 13.148438 L 31.707031 13.105469 C 31.722656 13.089844 31.738281 13.074219 31.753906 13.0625 C 31.785156 13.03125 31.816406 13.003906 31.851562 12.976562 C 31.917969 12.921875 31.984375 12.859375 32.0625 12.808594 C 32.132812 12.75 32.214844 12.695312 32.292969 12.640625 C 32.332031 12.613281 32.375 12.589844 32.417969 12.5625 L 32.480469 12.523438 C 32.5 12.507812 32.523438 12.496094 32.546875 12.484375 C 32.589844 12.460938 32.632812 12.433594 32.679688 12.410156 C 32.726562 12.382812 32.769531 12.359375 32.816406 12.335938 C 32.839844 12.324219 32.863281 12.3125 32.886719 12.300781 L 32.957031 12.265625 C 33.007812 12.242188 33.054688 12.21875 33.101562 12.195312 C 33.203125 12.152344 33.300781 12.105469 33.402344 12.066406 L 33.558594 12.003906 L 33.714844 11.945312 C 33.769531 11.925781 33.820312 11.910156 33.875 11.890625 L 34.203125 11.789062 C 34.257812 11.773438 34.3125 11.757812 34.367188 11.746094 C 34.8125 11.625 35.277344 11.539062 35.738281 11.484375 C 35.96875 11.460938 36.199219 11.4375 36.429688 11.425781 C 36.488281 11.425781 36.542969 11.421875 36.601562 11.417969 C 36.660156 11.414062 36.714844 11.414062 36.773438 11.414062 C 36.832031 11.414062 36.886719 11.410156 36.941406 11.410156 C 37 11.410156 37.054688 11.410156 37.113281 11.414062 C 38.007812 11.417969 38.835938 11.539062 39.515625 11.710938 C 39.855469 11.796875 40.15625 11.894531 40.417969 11.992188 C 40.679688 12.09375 40.902344 12.1875 41.074219 12.277344 C 41.164062 12.320312 41.238281 12.363281 41.308594 12.398438 C 41.375 12.429688 41.429688 12.464844 41.472656 12.492188 C 41.519531 12.515625 41.554688 12.535156 41.574219 12.550781 C 41.597656 12.5625 41.609375 12.570312 41.609375 12.570312 C 41.609375 12.570312 41.601562 12.558594 41.585938 12.539062 C 41.570312 12.515625 41.542969 12.484375 41.511719 12.445312 C 41.472656 12.40625 41.433594 12.355469 41.378906 12.300781 C 41.324219 12.242188 41.265625 12.175781 41.1875 12.109375 C 41.039062 11.972656 40.839844 11.808594 40.59375 11.648438 C 40.34375 11.484375 40.046875 11.3125 39.703125 11.15625 C 39.015625 10.847656 38.132812 10.601562 37.15625 10.515625 C 37.09375 10.507812 37.035156 10.503906 36.972656 10.5 C 36.910156 10.496094 36.847656 10.492188 36.785156 10.488281 C 36.722656 10.488281 36.660156 10.484375 36.597656 10.480469 C 36.566406 10.480469 36.535156 10.480469 36.503906 10.480469 C 36.910156 10.453125 37.300781 10.449219 37.671875 10.464844 C 38.1875 10.488281 38.660156 10.539062 39.074219 10.613281 C 39.488281 10.6875 39.847656 10.769531 40.140625 10.855469 C 40.429688 10.945312 40.660156 11.019531 40.808594 11.078125 C 40.886719 11.109375 40.945312 11.128906 40.984375 11.144531 C 41.023438 11.160156 41.042969 11.167969 41.042969 11.167969 C 41.042969 11.167969 41.027344 11.15625 40.992188 11.132812 C 40.957031 11.109375 40.902344 11.074219 40.835938 11.027344 C 40.695312 10.9375 40.488281 10.808594 40.210938 10.667969 C 39.933594 10.53125 39.585938 10.375 39.167969 10.238281 C 38.75 10.097656 38.269531 9.96875 37.730469 9.882812 C 37.1875 9.796875 36.59375 9.75 35.964844 9.757812 C 35.726562 9.765625 35.484375 9.777344 35.238281 9.800781 C 35.445312 9.769531 35.652344 9.742188 35.855469 9.722656 C 35.988281 9.707031 36.125 9.699219 36.257812 9.6875 C 36.390625 9.683594 36.523438 9.675781 36.65625 9.671875 C 37.710938 9.636719 38.703125 9.734375 39.546875 9.910156 C 39.964844 10 40.351562 10.101562 40.6875 10.210938 C 40.773438 10.238281 40.851562 10.269531 40.929688 10.296875 C 40.96875 10.3125 41.007812 10.324219 41.046875 10.339844 C 41.085938 10.351562 41.121094 10.367188 41.15625 10.382812 C 41.230469 10.410156 41.296875 10.4375 41.363281 10.460938 C 41.429688 10.492188 41.492188 10.519531 41.550781 10.542969 C 41.789062 10.648438 41.976562 10.738281 42.101562 10.804688 C 42.164062 10.839844 42.210938 10.863281 42.242188 10.882812 C 42.273438 10.898438 42.292969 10.910156 42.292969 10.910156 C 42.292969 10.910156 42.277344 10.894531 42.25 10.871094 C 42.226562 10.84375 42.183594 10.804688 42.132812 10.757812 C 42.023438 10.664062 41.867188 10.523438 41.652344 10.367188 C 41.597656 10.328125 41.539062 10.289062 41.480469 10.246094 C 41.417969 10.203125 41.351562 10.164062 41.285156 10.121094 C 41.253906 10.097656 41.21875 10.074219 41.183594 10.050781 C 41.144531 10.03125 41.109375 10.011719 41.070312 9.988281 C 40.996094 9.945312 40.921875 9.898438 40.835938 9.855469 C 40.511719 9.679688 40.132812 9.5 39.703125 9.347656 C 38.980469 9.082031 38.121094 8.882812 37.1875 8.804688 C 37.6875 8.824219 38.183594 8.875 38.675781 8.953125 C 38.75 8.964844 38.824219 8.980469 38.902344 8.992188 C 38.976562 9.003906 39.050781 9.023438 39.125 9.035156 C 39.199219 9.050781 39.277344 9.066406 39.351562 9.082031 C 39.425781 9.101562 39.5 9.117188 39.574219 9.132812 C 39.648438 9.148438 39.71875 9.167969 39.792969 9.1875 C 39.867188 9.207031 39.9375 9.226562 40.011719 9.246094 C 40.085938 9.269531 40.15625 9.292969 40.226562 9.3125 C 40.300781 9.335938 40.371094 9.355469 40.441406 9.382812 C 41.574219 9.753906 42.601562 10.308594 43.386719 11.007812 C 43.78125 11.355469 44.117188 11.734375 44.371094 12.121094 C 44.628906 12.507812 44.808594 12.894531 44.925781 13.230469 C 44.9375 13.273438 44.953125 13.3125 44.964844 13.355469 C 44.976562 13.394531 44.988281 13.433594 45 13.472656 C 45.019531 13.550781 45.042969 13.621094 45.058594 13.691406 C 45.085938 13.828125 45.117188 13.949219 45.128906 14.042969 C 45.15625 14.238281 45.167969 14.34375 45.167969 14.34375 C 45.167969 14.34375 45.175781 14.238281 45.183594 14.039062 C 45.1875 13.941406 45.183594 13.820312 45.179688 13.671875 Z M 45.179688 13.671875 " clip-rule="nonzero"/></clipPath><clipPath id="ad085580f3"><path d="M 45.179688 13.671875 C 45.175781 13.601562 45.164062 13.523438 45.15625 13.441406 C 45.152344 13.398438 45.144531 13.355469 45.140625 13.3125 C 45.132812 13.269531 45.125 13.226562 45.117188 13.179688 C 45.050781 12.8125 44.925781 12.375 44.703125 11.929688 C 44.484375 11.480469 44.179688 11.015625 43.792969 10.589844 C 43.023438 9.730469 41.949219 9.015625 40.742188 8.535156 C 40.664062 8.503906 40.589844 8.476562 40.511719 8.449219 C 40.4375 8.421875 40.359375 8.394531 40.28125 8.367188 C 40.203125 8.339844 40.125 8.316406 40.046875 8.289062 C 39.96875 8.261719 39.890625 8.238281 39.8125 8.214844 C 39.730469 8.195312 39.652344 8.171875 39.570312 8.148438 C 39.492188 8.125 39.410156 8.109375 39.332031 8.089844 C 39.25 8.070312 39.167969 8.046875 39.085938 8.03125 C 39.003906 8.015625 38.921875 8 38.839844 7.984375 C 38.1875 7.851562 37.511719 7.789062 36.84375 7.777344 C 36.171875 7.769531 35.5 7.808594 34.839844 7.914062 C 34.675781 7.941406 34.511719 7.96875 34.351562 8.003906 C 34.269531 8.019531 34.1875 8.035156 34.109375 8.054688 C 34.027344 8.074219 33.949219 8.09375 33.867188 8.113281 C 33.707031 8.148438 33.550781 8.199219 33.394531 8.242188 C 33.238281 8.289062 33.085938 8.339844 32.929688 8.390625 C 32.320312 8.609375 31.746094 8.875 31.21875 9.191406 C 30.695312 9.507812 30.222656 9.871094 29.816406 10.261719 C 29.410156 10.652344 29.082031 11.078125 28.828125 11.496094 C 28.574219 11.910156 28.410156 12.324219 28.304688 12.671875 C 28.28125 12.761719 28.257812 12.84375 28.238281 12.925781 C 28.21875 13.003906 28.207031 13.082031 28.191406 13.152344 C 28.179688 13.222656 28.167969 13.285156 28.160156 13.347656 C 28.152344 13.40625 28.148438 13.460938 28.140625 13.511719 C 28.136719 13.558594 28.132812 13.605469 28.128906 13.640625 C 28.128906 13.679688 28.128906 13.710938 28.128906 13.738281 C 28.125 13.789062 28.125 13.8125 28.125 13.8125 C 28.125 13.8125 28.132812 13.789062 28.140625 13.738281 C 28.148438 13.714844 28.152344 13.683594 28.164062 13.648438 C 28.171875 13.609375 28.183594 13.570312 28.199219 13.523438 C 28.210938 13.476562 28.226562 13.421875 28.246094 13.367188 C 28.261719 13.308594 28.285156 13.25 28.308594 13.183594 C 28.332031 13.117188 28.359375 13.046875 28.390625 12.976562 C 28.421875 12.902344 28.453125 12.828125 28.492188 12.746094 C 28.640625 12.429688 28.859375 12.074219 29.144531 11.722656 C 29.429688 11.371094 29.785156 11.023438 30.195312 10.710938 C 30.605469 10.394531 31.070312 10.113281 31.578125 9.867188 C 31.914062 9.703125 32.273438 9.554688 32.644531 9.429688 L 32.5625 9.460938 L 32.457031 9.503906 L 32.242188 9.597656 C 32.167969 9.628906 32.097656 9.664062 32.027344 9.699219 L 31.921875 9.746094 L 31.820312 9.804688 C 31.75 9.839844 31.679688 9.875 31.609375 9.914062 C 31.542969 9.953125 31.476562 9.992188 31.410156 10.03125 C 31.140625 10.195312 30.878906 10.367188 30.636719 10.566406 C 30.574219 10.617188 30.515625 10.664062 30.457031 10.714844 C 30.398438 10.769531 30.339844 10.820312 30.28125 10.871094 C 30.167969 10.980469 30.054688 11.085938 29.949219 11.203125 C 29.84375 11.316406 29.746094 11.4375 29.648438 11.558594 C 29.554688 11.683594 29.464844 11.804688 29.382812 11.9375 C 29.296875 12.066406 29.226562 12.203125 29.152344 12.339844 C 29.121094 12.40625 29.089844 12.476562 29.058594 12.546875 L 29.011719 12.648438 C 29 12.683594 28.984375 12.71875 28.972656 12.753906 C 28.957031 12.789062 28.945312 12.824219 28.933594 12.859375 C 28.917969 12.894531 28.910156 12.933594 28.898438 12.96875 C 28.878906 13.039062 28.855469 13.109375 28.835938 13.179688 C 28.804688 13.324219 28.769531 13.464844 28.753906 13.609375 C 28.730469 13.75 28.726562 13.890625 28.714844 14.027344 C 28.714844 14.097656 28.71875 14.167969 28.71875 14.234375 C 28.71875 14.265625 28.71875 14.300781 28.71875 14.332031 C 28.722656 14.367188 28.726562 14.398438 28.730469 14.433594 C 28.773438 14.960938 28.925781 15.417969 29.109375 15.785156 C 29.132812 15.828125 29.15625 15.871094 29.179688 15.917969 C 29.203125 15.960938 29.226562 16.003906 29.25 16.042969 C 29.300781 16.121094 29.347656 16.199219 29.398438 16.269531 C 29.449219 16.339844 29.5 16.40625 29.546875 16.46875 C 29.59375 16.527344 29.644531 16.582031 29.6875 16.636719 C 29.734375 16.691406 29.78125 16.738281 29.824219 16.78125 C 29.867188 16.828125 29.90625 16.867188 29.945312 16.90625 C 30.023438 16.976562 30.089844 17.035156 30.144531 17.085938 C 30.261719 17.175781 30.320312 17.222656 30.320312 17.222656 C 30.320312 17.222656 30.273438 17.160156 30.1875 17.046875 C 30.148438 16.984375 30.097656 16.914062 30.039062 16.824219 C 30.007812 16.78125 29.980469 16.734375 29.949219 16.683594 C 29.917969 16.628906 29.882812 16.578125 29.851562 16.519531 C 29.816406 16.460938 29.785156 16.398438 29.75 16.332031 C 29.71875 16.265625 29.683594 16.195312 29.648438 16.121094 C 29.617188 16.050781 29.585938 15.96875 29.554688 15.890625 C 29.535156 15.851562 29.523438 15.808594 29.507812 15.765625 C 29.492188 15.722656 29.480469 15.679688 29.464844 15.636719 C 29.351562 15.28125 29.289062 14.863281 29.308594 14.417969 C 29.3125 14.390625 29.3125 14.363281 29.3125 14.335938 C 29.316406 14.308594 29.320312 14.28125 29.320312 14.25 C 29.328125 14.195312 29.332031 14.136719 29.339844 14.082031 C 29.363281 13.96875 29.378906 13.851562 29.410156 13.738281 C 29.4375 13.625 29.480469 13.511719 29.515625 13.394531 C 29.539062 13.339844 29.5625 13.285156 29.585938 13.226562 C 29.597656 13.199219 29.609375 13.171875 29.621094 13.144531 C 29.636719 13.117188 29.648438 13.089844 29.664062 13.058594 C 29.675781 13.03125 29.691406 13.003906 29.707031 12.976562 L 29.726562 12.933594 L 29.75 12.894531 C 29.757812 12.878906 29.765625 12.867188 29.773438 12.851562 C 29.742188 12.921875 29.707031 12.988281 29.675781 13.058594 C 29.53125 13.402344 29.4375 13.769531 29.425781 14.140625 C 29.40625 14.507812 29.453125 14.875 29.558594 15.21875 C 29.667969 15.5625 29.828125 15.882812 30.023438 16.167969 C 30.222656 16.453125 30.453125 16.703125 30.695312 16.925781 C 30.941406 17.148438 31.207031 17.339844 31.472656 17.507812 C 31.738281 17.671875 32.007812 17.816406 32.277344 17.933594 C 32.3125 17.949219 32.34375 17.964844 32.378906 17.980469 C 32.410156 17.992188 32.445312 18.007812 32.476562 18.019531 C 32.546875 18.046875 32.613281 18.074219 32.675781 18.101562 C 32.8125 18.148438 32.941406 18.199219 33.070312 18.234375 C 33.589844 18.398438 34.082031 18.496094 34.515625 18.550781 C 34.953125 18.609375 35.335938 18.621094 35.648438 18.625 C 35.804688 18.625 35.945312 18.621094 36.066406 18.613281 C 36.1875 18.605469 36.292969 18.601562 36.375 18.59375 C 36.539062 18.578125 36.628906 18.570312 36.628906 18.570312 C 36.628906 18.570312 36.542969 18.558594 36.375 18.535156 C 36.292969 18.527344 36.191406 18.507812 36.074219 18.492188 C 35.953125 18.472656 35.816406 18.449219 35.667969 18.421875 C 35.363281 18.367188 35 18.285156 34.59375 18.167969 C 34.1875 18.054688 33.738281 17.894531 33.277344 17.683594 C 33.160156 17.632812 33.046875 17.574219 32.925781 17.515625 C 32.871094 17.484375 32.8125 17.453125 32.753906 17.421875 C 32.722656 17.40625 32.695312 17.390625 32.664062 17.375 C 32.636719 17.359375 32.605469 17.34375 32.578125 17.324219 C 32.34375 17.191406 32.113281 17.039062 31.894531 16.871094 C 31.671875 16.703125 31.460938 16.519531 31.269531 16.320312 C 31.078125 16.117188 30.90625 15.898438 30.765625 15.667969 C 30.625 15.441406 30.523438 15.199219 30.460938 14.953125 C 30.398438 14.707031 30.375 14.457031 30.394531 14.207031 C 30.40625 14.035156 30.441406 13.867188 30.496094 13.699219 C 30.472656 13.8125 30.460938 13.921875 30.453125 14.027344 C 30.445312 14.316406 30.5 14.570312 30.578125 14.78125 C 30.652344 14.996094 30.765625 15.164062 30.867188 15.300781 C 30.882812 15.316406 30.894531 15.332031 30.90625 15.347656 C 30.917969 15.363281 30.929688 15.378906 30.945312 15.394531 C 30.96875 15.421875 30.992188 15.449219 31.015625 15.476562 C 31.0625 15.523438 31.105469 15.5625 31.136719 15.597656 C 31.171875 15.628906 31.203125 15.652344 31.21875 15.667969 C 31.238281 15.683594 31.246094 15.691406 31.246094 15.691406 C 31.246094 15.691406 31.242188 15.683594 31.230469 15.660156 C 31.21875 15.636719 31.203125 15.605469 31.183594 15.5625 C 31.164062 15.519531 31.140625 15.46875 31.117188 15.40625 C 31.105469 15.378906 31.09375 15.34375 31.082031 15.3125 C 31.074219 15.292969 31.066406 15.277344 31.0625 15.257812 C 31.054688 15.242188 31.050781 15.222656 31.046875 15.203125 C 30.996094 15.054688 30.960938 14.878906 30.953125 14.695312 C 30.945312 14.511719 30.96875 14.316406 31.027344 14.117188 C 31.09375 13.917969 31.191406 13.710938 31.363281 13.488281 L 31.394531 13.445312 L 31.429688 13.402344 C 31.453125 13.375 31.472656 13.347656 31.5 13.316406 C 31.527344 13.289062 31.554688 13.261719 31.578125 13.230469 C 31.605469 13.203125 31.636719 13.175781 31.664062 13.148438 L 31.707031 13.105469 C 31.722656 13.089844 31.738281 13.074219 31.753906 13.0625 C 31.785156 13.03125 31.816406 13.003906 31.851562 12.976562 C 31.917969 12.921875 31.984375 12.859375 32.0625 12.808594 C 32.132812 12.75 32.214844 12.695312 32.292969 12.640625 C 32.332031 12.613281 32.375 12.589844 32.417969 12.5625 L 32.480469 12.523438 C 32.5 12.507812 32.523438 12.496094 32.546875 12.484375 C 32.589844 12.460938 32.632812 12.433594 32.679688 12.410156 C 32.726562 12.382812 32.769531 12.359375 32.816406 12.335938 C 32.839844 12.324219 32.863281 12.3125 32.886719 12.300781 L 32.957031 12.265625 C 33.007812 12.242188 33.054688 12.21875 33.101562 12.195312 C 33.203125 12.152344 33.300781 12.105469 33.402344 12.066406 L 33.558594 12.003906 L 33.714844 11.945312 C 33.769531 11.925781 33.820312 11.910156 33.875 11.890625 L 34.203125 11.789062 C 34.257812 11.773438 34.3125 11.757812 34.367188 11.746094 C 34.8125 11.625 35.277344 11.539062 35.738281 11.484375 C 35.96875 11.460938 36.199219 11.4375 36.429688 11.425781 C 36.488281 11.425781 36.542969 11.421875 36.601562 11.417969 C 36.660156 11.414062 36.714844 11.414062 36.773438 11.414062 C 36.832031 11.414062 36.886719 11.410156 36.941406 11.410156 C 37 11.410156 37.054688 11.410156 37.113281 11.414062 C 38.007812 11.417969 38.835938 11.539062 39.515625 11.710938 C 39.855469 11.796875 40.15625 11.894531 40.417969 11.992188 C 40.679688 12.09375 40.902344 12.1875 41.074219 12.277344 C 41.164062 12.320312 41.238281 12.363281 41.308594 12.398438 C 41.375 12.429688 41.429688 12.464844 41.472656 12.492188 C 41.519531 12.515625 41.554688 12.535156 41.574219 12.550781 C 41.597656 12.5625 41.609375 12.570312 41.609375 12.570312 C 41.609375 12.570312 41.601562 12.558594 41.585938 12.539062 C 41.570312 12.515625 41.542969 12.484375 41.511719 12.445312 C 41.472656 12.40625 41.433594 12.355469 41.378906 12.300781 C 41.324219 12.242188 41.265625 12.175781 41.1875 12.109375 C 41.039062 11.972656 40.839844 11.808594 40.59375 11.648438 C 40.34375 11.484375 40.046875 11.3125 39.703125 11.15625 C 39.015625 10.847656 38.132812 10.601562 37.15625 10.515625 C 37.09375 10.507812 37.035156 10.503906 36.972656 10.5 C 36.910156 10.496094 36.847656 10.492188 36.785156 10.488281 C 36.722656 10.488281 36.660156 10.484375 36.597656 10.480469 C 36.566406 10.480469 36.535156 10.480469 36.503906 10.480469 C 36.910156 10.453125 37.300781 10.449219 37.671875 10.464844 C 38.1875 10.488281 38.660156 10.539062 39.074219 10.613281 C 39.488281 10.6875 39.847656 10.769531 40.140625 10.855469 C 40.429688 10.945312 40.660156 11.019531 40.808594 11.078125 C 40.886719 11.109375 40.945312 11.128906 40.984375 11.144531 C 41.023438 11.160156 41.042969 11.167969 41.042969 11.167969 C 41.042969 11.167969 41.027344 11.15625 40.992188 11.132812 C 40.957031 11.109375 40.902344 11.074219 40.835938 11.027344 C 40.695312 10.9375 40.488281 10.808594 40.210938 10.667969 C 39.933594 10.53125 39.585938 10.375 39.167969 10.238281 C 38.75 10.097656 38.269531 9.96875 37.730469 9.882812 C 37.1875 9.796875 36.59375 9.75 35.964844 9.757812 C 35.726562 9.765625 35.484375 9.777344 35.238281 9.800781 C 35.445312 9.769531 35.652344 9.742188 35.855469 9.722656 C 35.988281 9.707031 36.125 9.699219 36.257812 9.6875 C 36.390625 9.683594 36.523438 9.675781 36.65625 9.671875 C 37.710938 9.636719 38.703125 9.734375 39.546875 9.910156 C 39.964844 10 40.351562 10.101562 40.6875 10.210938 C 40.773438 10.238281 40.851562 10.269531 40.929688 10.296875 C 40.96875 10.3125 41.007812 10.324219 41.046875 10.339844 C 41.085938 10.351562 41.121094 10.367188 41.15625 10.382812 C 41.230469 10.410156 41.296875 10.4375 41.363281 10.460938 C 41.429688 10.492188 41.492188 10.519531 41.550781 10.542969 C 41.789062 10.648438 41.976562 10.738281 42.101562 10.804688 C 42.164062 10.839844 42.210938 10.863281 42.242188 10.882812 C 42.273438 10.898438 42.292969 10.910156 42.292969 10.910156 C 42.292969 10.910156 42.277344 10.894531 42.25 10.871094 C 42.226562 10.84375 42.183594 10.804688 42.132812 10.757812 C 42.023438 10.664062 41.867188 10.523438 41.652344 10.367188 C 41.597656 10.328125 41.539062 10.289062 41.480469 10.246094 C 41.417969 10.203125 41.351562 10.164062 41.285156 10.121094 C 41.253906 10.097656 41.21875 10.074219 41.183594 10.050781 C 41.144531 10.03125 41.109375 10.011719 41.070312 9.988281 C 40.996094 9.945312 40.921875 9.898438 40.835938 9.855469 C 40.511719 9.679688 40.132812 9.5 39.703125 9.347656 C 38.980469 9.082031 38.121094 8.882812 37.1875 8.804688 C 37.6875 8.824219 38.183594 8.875 38.675781 8.953125 C 38.75 8.964844 38.824219 8.980469 38.902344 8.992188 C 38.976562 9.003906 39.050781 9.023438 39.125 9.035156 C 39.199219 9.050781 39.277344 9.066406 39.351562 9.082031 C 39.425781 9.101562 39.5 9.117188 39.574219 9.132812 C 39.648438 9.148438 39.71875 9.167969 39.792969 9.1875 C 39.867188 9.207031 39.9375 9.226562 40.011719 9.246094 C 40.085938 9.269531 40.15625 9.292969 40.226562 9.3125 C 40.300781 9.335938 40.371094 9.355469 40.441406 9.382812 C 41.574219 9.753906 42.601562 10.308594 43.386719 11.007812 C 43.78125 11.355469 44.117188 11.734375 44.371094 12.121094 C 44.628906 12.507812 44.808594 12.894531 44.925781 13.230469 C 44.9375 13.273438 44.953125 13.3125 44.964844 13.355469 C 44.976562 13.394531 44.988281 13.433594 45 13.472656 C 45.019531 13.550781 45.042969 13.621094 45.058594 13.691406 C 45.085938 13.828125 45.117188 13.949219 45.128906 14.042969 C 45.15625 14.238281 45.167969 14.34375 45.167969 14.34375 C 45.167969 14.34375 45.175781 14.238281 45.183594 14.039062 C 45.1875 13.941406 45.183594 13.820312 45.179688 13.671875 " clip-rule="nonzero"/></clipPath><radialGradient gradientTransform="matrix(0.992528, 0, 0, 1.007472, 36.655758, 13.199751)" gradientUnits="userSpaceOnUse" r="7.171265" cx="0" id="428bc5b87d" cy="0" fx="0" fy="0"><stop stop-opacity="1" stop-color="rgb(31.604004%, 67.652893%, 89.7995%)" offset="0"/><stop stop-opacity="1" stop-color="rgb(31.404114%, 67.501831%, 89.608765%)" offset="0.00390625"/><stop stop-opacity="1" stop-color="rgb(31.399536%, 67.312622%, 89.408875%)" offset="0.0078125"/><stop stop-opacity="1" stop-color="rgb(31.217957%, 67.112732%, 89.399719%)" offset="0.0117188"/><stop stop-opacity="1" stop-color="rgb(31.018066%, 66.921997%, 89.222717%)" offset="0.015625"/><stop stop-opacity="1" stop-color="rgb(30.999756%, 66.522217%, 88.999939%)" offset="0.0195312"/><stop stop-opacity="1" stop-color="rgb(30.999756%, 66.281128%, 88.777161%)" offset="0.0234375"/><stop stop-opacity="1" stop-color="rgb(30.999756%, 66.069031%, 88.586426%)" offset="0.0273438"/><stop stop-opacity="1" stop-color="rgb(30.990601%, 65.686035%, 88.386536%)" offset="0.03125"/><stop stop-opacity="1" stop-color="rgb(30.79071%, 65.4953%, 88.198853%)" offset="0.0351562"/><stop stop-opacity="1" stop-color="rgb(30.599976%, 65.296936%, 88.198853%)" offset="0.0390625"/><stop stop-opacity="1" stop-color="rgb(30.599976%, 65.100098%, 88.005066%)" offset="0.0429688"/><stop stop-opacity="1" stop-color="rgb(30.599976%, 64.909363%, 87.805176%)" offset="0.046875"/><stop stop-opacity="1" stop-color="rgb(30.599976%, 64.709473%, 87.799072%)" offset="0.0507812"/><stop stop-opacity="1" stop-color="rgb(30.599976%, 64.518738%, 87.663269%)" offset="0.0546875"/><stop stop-opacity="1" stop-color="rgb(30.4245%, 64.318848%, 87.513733%)" offset="0.0585938"/><stop stop-opacity="1" stop-color="rgb(30.223083%, 64.099121%, 87.478638%)" offset="0.0625"/><stop stop-opacity="1" stop-color="rgb(30.183411%, 63.883972%, 87.278748%)" offset="0.0664062"/><stop stop-opacity="1" stop-color="rgb(29.983521%, 63.673401%, 87.098694%)" offset="0.0703125"/><stop stop-opacity="1" stop-color="rgb(29.798889%, 63.288879%, 87.09259%)" offset="0.0742188"/><stop stop-opacity="1" stop-color="rgb(29.798889%, 63.098145%, 86.8927%)" offset="0.078125"/><stop stop-opacity="1" stop-color="rgb(29.798889%, 62.901306%, 86.698914%)" offset="0.0820312"/><stop stop-opacity="1" stop-color="rgb(29.798889%, 62.557983%, 86.698914%)" offset="0.0859375"/><stop stop-opacity="1" stop-color="rgb(29.611206%, 62.405396%, 86.51123%)" offset="0.0898438"/><stop stop-opacity="1" stop-color="rgb(29.411316%, 62.216187%, 86.31134%)" offset="0.09375"/><stop stop-opacity="1" stop-color="rgb(29.399109%, 62.016296%, 86.299133%)" offset="0.0976562"/><stop stop-opacity="1" stop-color="rgb(29.399109%, 61.799622%, 86.099243%)" offset="0.101562"/><stop stop-opacity="1" stop-color="rgb(29.399109%, 61.579895%, 85.899353%)" offset="0.105469"/><stop stop-opacity="1" stop-color="rgb(29.399109%, 61.380005%, 85.884094%)" offset="0.109375"/><stop stop-opacity="1" stop-color="rgb(29.389954%, 61.18927%, 85.684204%)" offset="0.113281"/><stop stop-opacity="1" stop-color="rgb(29.190063%, 60.98938%, 85.494995%)" offset="0.117188"/><stop stop-opacity="1" stop-color="rgb(28.999329%, 60.798645%, 85.295105%)" offset="0.121094"/><stop stop-opacity="1" stop-color="rgb(28.999329%, 60.603333%, 85.099792%)" offset="0.125"/><stop stop-opacity="1" stop-color="rgb(28.999329%, 60.403442%, 85.099792%)" offset="0.128906"/><stop stop-opacity="1" stop-color="rgb(28.999329%, 60.212708%, 84.913635%)" offset="0.132812"/><stop stop-opacity="1" stop-color="rgb(28.999329%, 60.012817%, 84.712219%)" offset="0.136719"/><stop stop-opacity="1" stop-color="rgb(28.822327%, 59.822083%, 84.698486%)" offset="0.140625"/><stop stop-opacity="1" stop-color="rgb(28.622437%, 59.422302%, 84.498596%)" offset="0.144531"/><stop stop-opacity="1" stop-color="rgb(28.581238%, 59.181213%, 84.281921%)" offset="0.148438"/><stop stop-opacity="1" stop-color="rgb(28.381348%, 58.969116%, 84.082031%)" offset="0.152344"/><stop stop-opacity="1" stop-color="rgb(28.199768%, 58.586121%, 83.898926%)" offset="0.15625"/><stop stop-opacity="1" stop-color="rgb(28.199768%, 58.395386%, 83.898926%)" offset="0.160156"/><stop stop-opacity="1" stop-color="rgb(28.199768%, 58.197021%, 83.898926%)" offset="0.164062"/><stop stop-opacity="1" stop-color="rgb(28.199768%, 58.000183%, 83.705139%)" offset="0.167969"/><stop stop-opacity="1" stop-color="rgb(28.199768%, 57.809448%, 83.505249%)" offset="0.171875"/><stop stop-opacity="1" stop-color="rgb(28.015137%, 57.609558%, 83.499146%)" offset="0.175781"/><stop stop-opacity="1" stop-color="rgb(27.815247%, 57.4646%, 83.319092%)" offset="0.179688"/><stop stop-opacity="1" stop-color="rgb(27.799988%, 57.315063%, 83.119202%)" offset="0.183594"/><stop stop-opacity="1" stop-color="rgb(27.799988%, 57.098389%, 83.078003%)" offset="0.1875"/><stop stop-opacity="1" stop-color="rgb(27.799988%, 56.898499%, 82.878113%)" offset="0.191406"/><stop stop-opacity="1" stop-color="rgb(27.799988%, 56.887817%, 82.69043%)" offset="0.195312"/><stop stop-opacity="1" stop-color="rgb(27.799988%, 56.681824%, 82.540894%)" offset="0.199219"/><stop stop-opacity="1" stop-color="rgb(27.798462%, 56.292725%, 82.398987%)" offset="0.203125"/><stop stop-opacity="1" stop-color="rgb(27.650452%, 56.098938%, 82.398987%)" offset="0.207031"/><stop stop-opacity="1" stop-color="rgb(27.500916%, 55.906677%, 82.206726%)" offset="0.210938"/><stop stop-opacity="1" stop-color="rgb(27.49939%, 55.706787%, 82.006836%)" offset="0.214844"/><stop stop-opacity="1" stop-color="rgb(27.49939%, 55.516052%, 81.816101%)" offset="0.21875"/><stop stop-opacity="1" stop-color="rgb(27.49939%, 55.137634%, 81.616211%)" offset="0.222656"/><stop stop-opacity="1" stop-color="rgb(27.2995%, 54.896545%, 81.599426%)" offset="0.226562"/><stop stop-opacity="1" stop-color="rgb(27.099609%, 54.675293%, 81.57959%)" offset="0.230469"/><stop stop-opacity="1" stop-color="rgb(27.084351%, 54.484558%, 81.3797%)" offset="0.234375"/><stop stop-opacity="1" stop-color="rgb(26.88446%, 54.284668%, 81.199646%)" offset="0.238281"/><stop stop-opacity="1" stop-color="rgb(26.699829%, 54.093933%, 81.195068%)" offset="0.242188"/><stop stop-opacity="1" stop-color="rgb(26.699829%, 53.894043%, 80.995178%)" offset="0.246094"/><stop stop-opacity="1" stop-color="rgb(26.699829%, 53.69873%, 80.799866%)" offset="0.25"/><stop stop-opacity="1" stop-color="rgb(26.699829%, 53.507996%, 80.799866%)" offset="0.253906"/><stop stop-opacity="1" stop-color="rgb(26.699829%, 53.308105%, 80.618286%)" offset="0.257812"/><stop stop-opacity="1" stop-color="rgb(26.699829%, 53.121948%, 80.41687%)" offset="0.265625"/><stop stop-opacity="1" stop-color="rgb(26.498413%, 52.722168%, 80.198669%)" offset="0.269531"/><stop stop-opacity="1" stop-color="rgb(26.298523%, 52.485657%, 79.981995%)" offset="0.273438"/><stop stop-opacity="1" stop-color="rgb(26.298523%, 52.328491%, 79.782104%)" offset="0.277344"/><stop stop-opacity="1" stop-color="rgb(26.295471%, 51.991272%, 79.595947%)" offset="0.285156"/><stop stop-opacity="1" stop-color="rgb(26.097107%, 51.799011%, 79.397583%)" offset="0.289062"/><stop stop-opacity="1" stop-color="rgb(25.900269%, 51.605225%, 79.200745%)" offset="0.292969"/><stop stop-opacity="1" stop-color="rgb(25.898743%, 51.220703%, 79.014587%)" offset="0.296875"/><stop stop-opacity="1" stop-color="rgb(25.718689%, 51.014709%, 78.814697%)" offset="0.304688"/><stop stop-opacity="1" stop-color="rgb(25.518799%, 50.823975%, 78.799438%)" offset="0.308594"/><stop stop-opacity="1" stop-color="rgb(25.498962%, 50.602722%, 78.778076%)" offset="0.3125"/><stop stop-opacity="1" stop-color="rgb(25.498962%, 50.367737%, 78.578186%)" offset="0.316406"/><stop stop-opacity="1" stop-color="rgb(25.498962%, 49.987793%, 78.393555%)" offset="0.324219"/><stop stop-opacity="1" stop-color="rgb(25.498962%, 49.797058%, 78.193665%)" offset="0.328125"/><stop stop-opacity="1" stop-color="rgb(25.498962%, 49.60022%, 77.999878%)" offset="0.332031"/><stop stop-opacity="1" stop-color="rgb(25.306702%, 49.401855%, 77.999878%)" offset="0.335938"/><stop stop-opacity="1" stop-color="rgb(25.106812%, 49.211121%, 77.999878%)" offset="0.339844"/><stop stop-opacity="1" stop-color="rgb(25.099182%, 49.01123%, 77.816772%)" offset="0.34375"/><stop stop-opacity="1" stop-color="rgb(25.099182%, 48.820496%, 77.615356%)" offset="0.347656"/><stop stop-opacity="1" stop-color="rgb(25.099182%, 48.597717%, 77.449036%)" offset="0.351562"/><stop stop-opacity="1" stop-color="rgb(25.099182%, 48.374939%, 77.279663%)" offset="0.355469"/><stop stop-opacity="1" stop-color="rgb(25.099182%, 48.184204%, 77.079773%)" offset="0.359375"/><stop stop-opacity="1" stop-color="rgb(25.090027%, 47.984314%, 76.899719%)" offset="0.363281"/><stop stop-opacity="1" stop-color="rgb(24.890137%, 47.795105%, 76.895142%)" offset="0.367188"/><stop stop-opacity="1" stop-color="rgb(24.699402%, 47.645569%, 76.695251%)" offset="0.371094"/><stop stop-opacity="1" stop-color="rgb(24.508667%, 47.30835%, 76.499939%)" offset="0.378906"/><stop stop-opacity="1" stop-color="rgb(24.308777%, 46.92688%, 76.318359%)" offset="0.382812"/><stop stop-opacity="1" stop-color="rgb(24.299622%, 46.717834%, 76.116943%)" offset="0.390625"/><stop stop-opacity="1" stop-color="rgb(24.299622%, 46.499634%, 76.077271%)" offset="0.394531"/><stop stop-opacity="1" stop-color="rgb(24.299622%, 46.286011%, 75.87738%)" offset="0.398438"/><stop stop-opacity="1" stop-color="rgb(24.299622%, 46.086121%, 75.691223%)" offset="0.40625"/><stop stop-opacity="1" stop-color="rgb(24.29657%, 45.895386%, 75.491333%)" offset="0.410156"/><stop stop-opacity="1" stop-color="rgb(24.098206%, 45.697021%, 75.299072%)" offset="0.414062"/><stop stop-opacity="1" stop-color="rgb(23.901367%, 45.306396%, 75.299072%)" offset="0.417969"/><stop stop-opacity="1" stop-color="rgb(23.899841%, 45.10498%, 75.109863%)" offset="0.421875"/><stop stop-opacity="1" stop-color="rgb(23.899841%, 44.914246%, 74.909973%)" offset="0.425781"/><stop stop-opacity="1" stop-color="rgb(23.899841%, 44.540405%, 74.723816%)" offset="0.429688"/><stop stop-opacity="1" stop-color="rgb(23.899841%, 44.32373%, 74.504089%)" offset="0.4375"/><stop stop-opacity="1" stop-color="rgb(23.883057%, 44.282532%, 74.278259%)" offset="0.441406"/><stop stop-opacity="1" stop-color="rgb(23.683167%, 44.076538%, 74.099731%)" offset="0.445312"/><stop stop-opacity="1" stop-color="rgb(23.497009%, 43.693542%, 74.098206%)" offset="0.453125"/><stop stop-opacity="1" stop-color="rgb(23.300171%, 43.499756%, 73.901367%)" offset="0.457031"/><stop stop-opacity="1" stop-color="rgb(23.101807%, 43.307495%, 73.703003%)" offset="0.460938"/><stop stop-opacity="1" stop-color="rgb(23.098755%, 43.107605%, 73.516846%)" offset="0.464844"/><stop stop-opacity="1" stop-color="rgb(23.098755%, 42.921448%, 73.31543%)" offset="0.472656"/><stop stop-opacity="1" stop-color="rgb(23.098755%, 42.570496%, 73.275757%)" offset="0.476562"/><stop stop-opacity="1" stop-color="rgb(23.098755%, 42.379761%, 73.075867%)" offset="0.480469"/><stop stop-opacity="1" stop-color="rgb(23.098755%, 42.170715%, 72.889709%)" offset="0.484375"/><stop stop-opacity="1" stop-color="rgb(23.094177%, 41.789246%, 72.689819%)" offset="0.492188"/><stop stop-opacity="1" stop-color="rgb(22.894287%, 41.598511%, 72.499084%)" offset="0.496094"/><stop stop-opacity="1" stop-color="rgb(22.698975%, 41.407776%, 72.499084%)" offset="0.503906"/><stop stop-opacity="1" stop-color="rgb(22.698975%, 41.207886%, 72.358704%)" offset="0.507812"/><stop stop-opacity="1" stop-color="rgb(22.698975%, 41.017151%, 72.209167%)" offset="0.511719"/><stop stop-opacity="1" stop-color="rgb(22.566223%, 40.817261%, 72.021484%)" offset="0.515625"/><stop stop-opacity="1" stop-color="rgb(22.416687%, 40.59906%, 71.821594%)" offset="0.519531"/><stop stop-opacity="1" stop-color="rgb(22.399902%, 40.39917%, 71.781921%)" offset="0.523438"/><stop stop-opacity="1" stop-color="rgb(22.399902%, 40.386963%, 71.582031%)" offset="0.527344"/><stop stop-opacity="1" stop-color="rgb(22.399902%, 40.187073%, 71.398926%)" offset="0.53125"/><stop stop-opacity="1" stop-color="rgb(22.399902%, 39.996338%, 71.398926%)" offset="0.535156"/><stop stop-opacity="1" stop-color="rgb(22.399902%, 39.797974%, 71.398926%)" offset="0.539062"/><stop stop-opacity="1" stop-color="rgb(22.206116%, 39.601135%, 71.205139%)" offset="0.542969"/><stop stop-opacity="1" stop-color="rgb(22.0047%, 39.4104%, 71.005249%)" offset="0.546875"/><stop stop-opacity="1" stop-color="rgb(21.998596%, 39.21051%, 70.814514%)" offset="0.550781"/><stop stop-opacity="1" stop-color="rgb(21.998596%, 39.019775%, 70.614624%)" offset="0.554688"/><stop stop-opacity="1" stop-color="rgb(21.998596%, 38.818359%, 70.599365%)" offset="0.558594"/><stop stop-opacity="1" stop-color="rgb(21.998596%, 38.598633%, 70.578003%)" offset="0.5625"/><stop stop-opacity="1" stop-color="rgb(21.998596%, 38.383484%, 70.378113%)" offset="0.566406"/><stop stop-opacity="1" stop-color="rgb(21.99707%, 38.182068%, 70.198059%)" offset="0.570312"/><stop stop-opacity="1" stop-color="rgb(21.800232%, 37.800598%, 70.001221%)" offset="0.582031"/><stop stop-opacity="1" stop-color="rgb(21.601868%, 37.451172%, 69.619751%)" offset="0.585938"/><stop stop-opacity="1" stop-color="rgb(21.420288%, 37.298584%, 69.415283%)" offset="0.597656"/><stop stop-opacity="1" stop-color="rgb(21.220398%, 37.098694%, 69.198608%)" offset="0.601562"/><stop stop-opacity="1" stop-color="rgb(21.199036%, 36.880493%, 68.998718%)" offset="0.605469"/><stop stop-opacity="1" stop-color="rgb(21.199036%, 36.680603%, 68.984985%)" offset="0.609375"/><stop stop-opacity="1" stop-color="rgb(21.199036%, 36.489868%, 68.785095%)" offset="0.613281"/><stop stop-opacity="1" stop-color="rgb(21.199036%, 36.289978%, 68.598938%)" offset="0.617188"/><stop stop-opacity="1" stop-color="rgb(21.199036%, 36.099243%, 68.598938%)" offset="0.621094"/><stop stop-opacity="1" stop-color="rgb(21.199036%, 35.903931%, 68.403625%)" offset="0.625"/><stop stop-opacity="1" stop-color="rgb(21.199036%, 35.704041%, 68.203735%)" offset="0.628906"/><stop stop-opacity="1" stop-color="rgb(21.199036%, 35.517883%, 68.199158%)" offset="0.636719"/><stop stop-opacity="1" stop-color="rgb(21.022034%, 35.317993%, 68.022156%)" offset="0.640625"/><stop stop-opacity="1" stop-color="rgb(20.822144%, 35.099792%, 67.822266%)" offset="0.644531"/><stop stop-opacity="1" stop-color="rgb(20.799255%, 34.886169%, 67.790222%)" offset="0.648438"/><stop stop-opacity="1" stop-color="rgb(20.799255%, 34.683228%, 67.63916%)" offset="0.65625"/><stop stop-opacity="1" stop-color="rgb(20.799255%, 34.29718%, 67.498779%)" offset="0.664062"/><stop stop-opacity="1" stop-color="rgb(20.605469%, 34.100342%, 67.304993%)" offset="0.667969"/><stop stop-opacity="1" stop-color="rgb(20.405579%, 33.914185%, 67.105103%)" offset="0.671875"/><stop stop-opacity="1" stop-color="rgb(20.399475%, 33.714294%, 66.918945%)" offset="0.679688"/><stop stop-opacity="1" stop-color="rgb(20.399475%, 33.52356%, 66.719055%)" offset="0.683594"/><stop stop-opacity="1" stop-color="rgb(20.399475%, 33.303833%, 66.499329%)" offset="0.6875"/><stop stop-opacity="1" stop-color="rgb(20.399475%, 33.067322%, 66.299438%)" offset="0.691406"/><stop stop-opacity="1" stop-color="rgb(20.393372%, 32.688904%, 66.293335%)" offset="0.699219"/><stop stop-opacity="1" stop-color="rgb(20.193481%, 32.348633%, 66.093445%)" offset="0.703125"/><stop stop-opacity="1" stop-color="rgb(19.999695%, 32.199097%, 65.716553%)" offset="0.71875"/><stop stop-opacity="1" stop-color="rgb(19.999695%, 32.020569%, 65.516663%)" offset="0.722656"/><stop stop-opacity="1" stop-color="rgb(19.999695%, 31.797791%, 65.475464%)" offset="0.726562"/><stop stop-opacity="1" stop-color="rgb(19.979858%, 31.575012%, 65.275574%)" offset="0.730469"/><stop stop-opacity="1" stop-color="rgb(19.779968%, 31.390381%, 65.089417%)" offset="0.734375"/><stop stop-opacity="1" stop-color="rgb(19.599915%, 31.190491%, 64.889526%)" offset="0.742188"/><stop stop-opacity="1" stop-color="rgb(19.599915%, 30.804443%, 64.503479%)" offset="0.75"/><stop stop-opacity="1" stop-color="rgb(19.599915%, 30.604553%, 64.303589%)" offset="0.753906"/><stop stop-opacity="1" stop-color="rgb(19.599915%, 30.413818%, 64.299011%)" offset="0.757812"/><stop stop-opacity="1" stop-color="rgb(19.599915%, 30.212402%, 64.299011%)" offset="0.761719"/><stop stop-opacity="1" stop-color="rgb(19.599915%, 30.198669%, 64.122009%)" offset="0.765625"/><stop stop-opacity="1" stop-color="rgb(19.398499%, 29.998779%, 63.922119%)" offset="0.769531"/><stop stop-opacity="1" stop-color="rgb(19.198608%, 29.798889%, 63.899231%)" offset="0.773438"/><stop stop-opacity="1" stop-color="rgb(19.198608%, 29.786682%, 63.887024%)" offset="0.777344"/><stop stop-opacity="1" stop-color="rgb(19.198608%, 29.586792%, 63.687134%)" offset="0.78125"/><stop stop-opacity="1" stop-color="rgb(19.198608%, 29.396057%, 63.499451%)" offset="0.785156"/><stop stop-opacity="1" stop-color="rgb(19.198608%, 29.197693%, 63.499451%)" offset="0.789062"/><stop stop-opacity="1" stop-color="rgb(19.198608%, 29.000854%, 63.305664%)" offset="0.792969"/><stop stop-opacity="1" stop-color="rgb(19.198608%, 28.999329%, 63.105774%)" offset="0.796875"/><stop stop-opacity="1" stop-color="rgb(19.198608%, 28.814697%, 63.09967%)" offset="0.800781"/><stop stop-opacity="1" stop-color="rgb(19.198608%, 28.614807%, 63.09967%)" offset="0.804688"/><stop stop-opacity="1" stop-color="rgb(19.198608%, 28.599548%, 62.924194%)" offset="0.808594"/><stop stop-opacity="1" stop-color="rgb(18.998718%, 28.399658%, 62.709045%)" offset="0.8125"/><stop stop-opacity="1" stop-color="rgb(18.798828%, 28.182983%, 62.533569%)" offset="0.816406"/><stop stop-opacity="1" stop-color="rgb(18.798828%, 27.978516%, 62.393188%)" offset="0.820312"/><stop stop-opacity="1" stop-color="rgb(18.798828%, 27.644348%, 62.193298%)" offset="0.828125"/><stop stop-opacity="1" stop-color="rgb(18.798828%, 27.311707%, 61.999512%)" offset="0.835938"/><stop stop-opacity="1" stop-color="rgb(18.615723%, 27.111816%, 61.816406%)" offset="0.84375"/><stop stop-opacity="1" stop-color="rgb(18.415833%, 27.099609%, 61.616516%)" offset="0.847656"/><stop stop-opacity="1" stop-color="rgb(18.399048%, 26.899719%, 61.599731%)" offset="0.851562"/><stop stop-opacity="1" stop-color="rgb(18.399048%, 26.699829%, 61.579895%)" offset="0.855469"/><stop stop-opacity="1" stop-color="rgb(18.399048%, 26.68457%, 61.380005%)" offset="0.859375"/><stop stop-opacity="1" stop-color="rgb(18.399048%, 26.48468%, 61.193848%)" offset="0.863281"/><stop stop-opacity="1" stop-color="rgb(18.399048%, 26.10321%, 60.993958%)" offset="0.871094"/><stop stop-opacity="1" stop-color="rgb(18.399048%, 25.90332%, 60.798645%)" offset="0.878906"/><stop stop-opacity="1" stop-color="rgb(18.399048%, 25.712585%, 60.612488%)" offset="0.882812"/><stop stop-opacity="1" stop-color="rgb(18.399048%, 25.512695%, 60.412598%)" offset="0.886719"/><stop stop-opacity="1" stop-color="rgb(18.399048%, 25.498962%, 60.398865%)" offset="0.890625"/><stop stop-opacity="1" stop-color="rgb(18.199158%, 25.299072%, 60.198975%)" offset="0.894531"/><stop stop-opacity="1" stop-color="rgb(17.999268%, 25.099182%, 59.999084%)" offset="0.898438"/><stop stop-opacity="1" stop-color="rgb(17.999268%, 25.086975%, 59.986877%)" offset="0.902344"/><stop stop-opacity="1" stop-color="rgb(17.999268%, 24.887085%, 59.786987%)" offset="0.90625"/><stop stop-opacity="1" stop-color="rgb(17.999268%, 24.505615%, 59.599304%)" offset="0.917969"/><stop stop-opacity="1" stop-color="rgb(17.999268%, 24.305725%, 59.410095%)" offset="0.921875"/><stop stop-opacity="1" stop-color="rgb(17.999268%, 24.119568%, 59.210205%)" offset="0.925781"/><stop stop-opacity="1" stop-color="rgb(17.823792%, 23.919678%, 59.199524%)" offset="0.933594"/><stop stop-opacity="1" stop-color="rgb(17.623901%, 23.698425%, 58.999634%)" offset="0.9375"/><stop stop-opacity="1" stop-color="rgb(17.599487%, 23.483276%, 58.799744%)" offset="0.941406"/><stop stop-opacity="1" stop-color="rgb(17.599487%, 23.283386%, 58.787537%)" offset="0.945312"/><stop stop-opacity="1" stop-color="rgb(17.599487%, 23.098755%, 58.587646%)" offset="0.949219"/><stop stop-opacity="1" stop-color="rgb(17.599487%, 22.906494%, 58.399963%)" offset="0.960938"/><stop stop-opacity="1" stop-color="rgb(17.459106%, 22.706604%, 58.21228%)" offset="0.964844"/><stop stop-opacity="1" stop-color="rgb(17.308044%, 22.564697%, 58.010864%)" offset="0.96875"/><stop stop-opacity="1" stop-color="rgb(17.298889%, 22.415161%, 57.798767%)" offset="0.976562"/><stop stop-opacity="1" stop-color="rgb(17.298889%, 22.380066%, 57.598877%)" offset="0.980469"/><stop stop-opacity="1" stop-color="rgb(17.298889%, 22.180176%, 57.449341%)" offset="0.984375"/><stop stop-opacity="1" stop-color="rgb(17.298889%, 21.998596%, 57.299805%)" offset="1"/></radialGradient><clipPath id="e593332089"><path d="M 28.070312 14.792969 L 45.132812 14.792969 L 45.132812 25.644531 L 28.070312 25.644531 Z M 28.070312 14.792969 " clip-rule="nonzero"/></clipPath><clipPath id="4b4752a201"><path d="M 45.097656 19.769531 C 45.085938 19.804688 45.074219 19.847656 45.0625 19.894531 C 45.046875 19.941406 45.03125 19.992188 45.015625 20.050781 C 45 20.109375 44.972656 20.167969 44.949219 20.234375 C 44.925781 20.296875 44.902344 20.371094 44.871094 20.441406 C 44.839844 20.515625 44.804688 20.589844 44.769531 20.671875 C 44.617188 20.984375 44.398438 21.339844 44.117188 21.695312 C 43.832031 22.046875 43.476562 22.394531 43.066406 22.707031 C 42.652344 23.019531 42.1875 23.304688 41.683594 23.550781 C 41.34375 23.714844 40.984375 23.859375 40.613281 23.988281 L 40.695312 23.957031 L 40.804688 23.910156 L 41.019531 23.820312 C 41.089844 23.785156 41.160156 23.753906 41.230469 23.71875 L 41.335938 23.667969 L 41.441406 23.613281 C 41.511719 23.578125 41.578125 23.542969 41.648438 23.503906 C 41.714844 23.464844 41.785156 23.425781 41.851562 23.382812 C 42.121094 23.222656 42.378906 23.046875 42.621094 22.851562 C 42.683594 22.800781 42.746094 22.753906 42.804688 22.699219 C 42.863281 22.648438 42.921875 22.597656 42.980469 22.546875 C 43.089844 22.4375 43.203125 22.328125 43.308594 22.214844 C 43.417969 22.101562 43.515625 21.976562 43.613281 21.859375 C 43.703125 21.734375 43.796875 21.609375 43.878906 21.476562 C 43.960938 21.351562 44.035156 21.210938 44.105469 21.078125 C 44.136719 21.007812 44.171875 20.941406 44.203125 20.871094 L 44.226562 20.820312 L 44.246094 20.765625 C 44.261719 20.730469 44.273438 20.695312 44.289062 20.660156 C 44.300781 20.625 44.3125 20.589844 44.328125 20.554688 C 44.339844 20.519531 44.351562 20.484375 44.363281 20.449219 C 44.382812 20.378906 44.40625 20.308594 44.421875 20.234375 C 44.457031 20.089844 44.488281 19.949219 44.507812 19.808594 C 44.53125 19.667969 44.535156 19.523438 44.542969 19.386719 C 44.542969 19.320312 44.542969 19.25 44.542969 19.183594 C 44.539062 19.148438 44.539062 19.117188 44.539062 19.082031 C 44.539062 19.050781 44.535156 19.015625 44.53125 18.984375 C 44.488281 18.457031 44.335938 17.996094 44.148438 17.632812 C 44.125 17.589844 44.101562 17.542969 44.078125 17.5 C 44.058594 17.457031 44.035156 17.414062 44.007812 17.375 C 43.957031 17.296875 43.910156 17.21875 43.863281 17.148438 C 43.808594 17.078125 43.761719 17.011719 43.714844 16.949219 C 43.664062 16.890625 43.617188 16.832031 43.570312 16.78125 C 43.527344 16.726562 43.480469 16.679688 43.4375 16.632812 C 43.394531 16.589844 43.355469 16.546875 43.316406 16.511719 C 43.234375 16.441406 43.167969 16.378906 43.113281 16.332031 C 43 16.242188 42.9375 16.195312 42.9375 16.195312 C 42.9375 16.195312 42.984375 16.253906 43.070312 16.371094 C 43.113281 16.429688 43.164062 16.503906 43.222656 16.589844 C 43.25 16.636719 43.28125 16.683594 43.3125 16.734375 C 43.34375 16.785156 43.378906 16.839844 43.410156 16.898438 C 43.441406 16.957031 43.476562 17.019531 43.511719 17.085938 C 43.542969 17.152344 43.574219 17.222656 43.609375 17.292969 C 43.644531 17.367188 43.671875 17.449219 43.707031 17.527344 C 43.722656 17.566406 43.738281 17.609375 43.75 17.652344 C 43.765625 17.695312 43.78125 17.738281 43.796875 17.78125 C 43.90625 18.132812 43.96875 18.550781 43.949219 18.996094 C 43.949219 19.027344 43.949219 19.054688 43.945312 19.082031 C 43.945312 19.109375 43.941406 19.136719 43.9375 19.164062 C 43.929688 19.222656 43.925781 19.277344 43.917969 19.335938 C 43.898438 19.449219 43.882812 19.5625 43.847656 19.679688 C 43.820312 19.792969 43.78125 19.90625 43.742188 20.019531 C 43.722656 20.078125 43.695312 20.132812 43.671875 20.1875 C 43.660156 20.21875 43.652344 20.246094 43.636719 20.273438 C 43.625 20.300781 43.609375 20.328125 43.597656 20.355469 C 43.582031 20.382812 43.566406 20.410156 43.554688 20.441406 L 43.535156 20.480469 L 43.511719 20.523438 C 43.5 20.535156 43.492188 20.550781 43.484375 20.566406 C 43.519531 20.496094 43.550781 20.425781 43.582031 20.355469 C 43.726562 20.011719 43.820312 19.644531 43.835938 19.277344 C 43.855469 18.90625 43.804688 18.539062 43.699219 18.199219 C 43.59375 17.855469 43.433594 17.535156 43.234375 17.25 C 43.039062 16.964844 42.808594 16.710938 42.5625 16.488281 C 42.316406 16.269531 42.054688 16.078125 41.789062 15.910156 C 41.523438 15.742188 41.253906 15.601562 40.984375 15.484375 C 40.949219 15.46875 40.914062 15.453125 40.882812 15.4375 C 40.847656 15.421875 40.816406 15.410156 40.78125 15.394531 C 40.714844 15.371094 40.648438 15.34375 40.582031 15.316406 C 40.449219 15.269531 40.320312 15.21875 40.1875 15.179688 C 39.667969 15.015625 39.179688 14.921875 38.742188 14.867188 C 38.308594 14.804688 37.925781 14.796875 37.609375 14.792969 C 37.453125 14.792969 37.316406 14.792969 37.191406 14.804688 C 37.070312 14.808594 36.96875 14.816406 36.886719 14.824219 C 36.71875 14.839844 36.628906 14.847656 36.628906 14.847656 C 36.628906 14.847656 36.71875 14.859375 36.882812 14.882812 C 36.964844 14.890625 37.066406 14.90625 37.1875 14.925781 C 37.304688 14.941406 37.441406 14.96875 37.59375 14.996094 C 37.894531 15.050781 38.257812 15.132812 38.667969 15.246094 C 39.074219 15.363281 39.519531 15.523438 39.984375 15.734375 C 40.101562 15.78125 40.214844 15.84375 40.332031 15.898438 C 40.390625 15.929688 40.449219 15.960938 40.507812 15.992188 C 40.535156 16.007812 40.566406 16.023438 40.59375 16.039062 C 40.625 16.058594 40.652344 16.074219 40.683594 16.089844 C 40.914062 16.222656 41.144531 16.375 41.367188 16.542969 C 41.585938 16.710938 41.800781 16.894531 41.992188 17.097656 C 42.183594 17.300781 42.355469 17.519531 42.492188 17.746094 C 42.636719 17.976562 42.738281 18.21875 42.800781 18.464844 C 42.863281 18.710938 42.882812 18.960938 42.867188 19.210938 C 42.851562 19.382812 42.816406 19.550781 42.761719 19.714844 C 42.785156 19.601562 42.800781 19.496094 42.804688 19.390625 C 42.816406 19.101562 42.761719 18.847656 42.683594 18.636719 C 42.605469 18.421875 42.492188 18.25 42.390625 18.117188 C 42.378906 18.101562 42.367188 18.082031 42.355469 18.066406 C 42.34375 18.050781 42.328125 18.035156 42.316406 18.023438 C 42.289062 17.992188 42.265625 17.964844 42.246094 17.941406 C 42.195312 17.894531 42.15625 17.851562 42.121094 17.820312 C 42.089844 17.789062 42.058594 17.765625 42.039062 17.746094 C 42.023438 17.730469 42.011719 17.722656 42.011719 17.722656 C 42.011719 17.722656 42.019531 17.734375 42.027344 17.757812 C 42.039062 17.78125 42.058594 17.8125 42.078125 17.855469 C 42.09375 17.898438 42.117188 17.949219 42.144531 18.007812 C 42.152344 18.039062 42.164062 18.070312 42.179688 18.105469 C 42.183594 18.121094 42.191406 18.140625 42.199219 18.15625 C 42.203125 18.175781 42.207031 18.191406 42.214844 18.210938 C 42.261719 18.359375 42.296875 18.539062 42.308594 18.722656 C 42.316406 18.90625 42.289062 19.101562 42.230469 19.300781 C 42.167969 19.496094 42.066406 19.707031 41.898438 19.929688 L 41.867188 19.972656 L 41.832031 20.015625 C 41.804688 20.042969 41.785156 20.070312 41.757812 20.097656 C 41.734375 20.128906 41.707031 20.15625 41.679688 20.183594 C 41.65625 20.214844 41.625 20.242188 41.597656 20.269531 L 41.550781 20.3125 C 41.539062 20.328125 41.519531 20.339844 41.503906 20.355469 C 41.472656 20.382812 41.441406 20.414062 41.410156 20.441406 C 41.339844 20.496094 41.273438 20.554688 41.199219 20.609375 C 41.128906 20.667969 41.046875 20.71875 40.96875 20.777344 C 40.925781 20.800781 40.882812 20.828125 40.84375 20.855469 L 40.78125 20.894531 C 40.757812 20.90625 40.734375 20.917969 40.714844 20.933594 C 40.667969 20.957031 40.625 20.984375 40.582031 21.007812 C 40.535156 21.03125 40.488281 21.054688 40.441406 21.082031 C 40.417969 21.09375 40.398438 21.105469 40.375 21.117188 L 40.300781 21.152344 C 40.253906 21.175781 40.207031 21.199219 40.15625 21.222656 C 40.058594 21.265625 39.960938 21.3125 39.855469 21.351562 L 39.703125 21.414062 L 39.542969 21.46875 C 39.492188 21.488281 39.4375 21.507812 39.382812 21.523438 L 39.222656 21.578125 L 39.058594 21.625 C 39.003906 21.640625 38.949219 21.660156 38.890625 21.671875 C 38.445312 21.792969 37.984375 21.878906 37.523438 21.933594 C 37.289062 21.957031 37.058594 21.980469 36.828125 21.988281 C 36.773438 21.992188 36.714844 21.996094 36.65625 22 C 36.601562 22.003906 36.542969 22 36.488281 22.003906 C 36.429688 22.003906 36.375 22.003906 36.316406 22.007812 C 36.261719 22.003906 36.203125 22.003906 36.148438 22.003906 C 35.253906 21.996094 34.425781 21.878906 33.746094 21.703125 C 33.40625 21.617188 33.101562 21.523438 32.839844 21.425781 C 32.582031 21.320312 32.355469 21.230469 32.183594 21.140625 C 32.09375 21.097656 32.019531 21.054688 31.953125 21.019531 C 31.882812 20.984375 31.832031 20.953125 31.785156 20.925781 C 31.742188 20.902344 31.707031 20.882812 31.683594 20.867188 C 31.660156 20.855469 31.648438 20.847656 31.648438 20.847656 C 31.648438 20.847656 31.660156 20.859375 31.675781 20.878906 C 31.6875 20.902344 31.714844 20.929688 31.75 20.972656 C 31.785156 21.011719 31.824219 21.0625 31.878906 21.117188 C 31.933594 21.171875 31.996094 21.238281 32.074219 21.304688 C 32.222656 21.445312 32.417969 21.605469 32.667969 21.769531 C 32.914062 21.933594 33.210938 22.105469 33.558594 22.257812 C 34.246094 22.570312 35.128906 22.816406 36.105469 22.902344 C 36.164062 22.90625 36.226562 22.914062 36.289062 22.917969 C 36.347656 22.921875 36.410156 22.921875 36.472656 22.925781 C 36.535156 22.929688 36.597656 22.933594 36.660156 22.933594 C 36.691406 22.9375 36.722656 22.9375 36.757812 22.9375 C 36.347656 22.960938 35.957031 22.964844 35.589844 22.953125 C 35.074219 22.929688 34.601562 22.875 34.183594 22.804688 C 33.769531 22.730469 33.410156 22.644531 33.121094 22.558594 C 32.832031 22.472656 32.601562 22.398438 32.449219 22.335938 C 32.375 22.308594 32.316406 22.285156 32.273438 22.273438 C 32.238281 22.253906 32.214844 22.246094 32.214844 22.246094 C 32.214844 22.246094 32.234375 22.261719 32.269531 22.285156 C 32.304688 22.308594 32.355469 22.34375 32.425781 22.390625 C 32.5625 22.480469 32.769531 22.609375 33.046875 22.75 C 33.324219 22.886719 33.675781 23.042969 34.09375 23.179688 C 34.507812 23.320312 34.992188 23.449219 35.53125 23.535156 C 36.070312 23.621094 36.664062 23.667969 37.296875 23.65625 C 37.53125 23.652344 37.773438 23.640625 38.019531 23.617188 C 37.816406 23.648438 37.609375 23.671875 37.40625 23.695312 C 37.269531 23.707031 37.136719 23.71875 37 23.730469 C 36.867188 23.734375 36.734375 23.742188 36.605469 23.746094 C 35.546875 23.78125 34.554688 23.679688 33.714844 23.503906 C 33.292969 23.417969 32.910156 23.316406 32.570312 23.203125 C 32.488281 23.179688 32.40625 23.144531 32.328125 23.117188 C 32.289062 23.105469 32.25 23.089844 32.214844 23.078125 C 32.175781 23.0625 32.140625 23.050781 32.101562 23.035156 C 32.03125 23.007812 31.960938 22.980469 31.894531 22.953125 C 31.828125 22.925781 31.765625 22.898438 31.707031 22.875 C 31.472656 22.765625 31.285156 22.679688 31.160156 22.609375 C 31.097656 22.578125 31.046875 22.554688 31.015625 22.535156 C 30.984375 22.515625 30.96875 22.507812 30.96875 22.507812 C 30.96875 22.507812 30.980469 22.519531 31.007812 22.546875 C 31.035156 22.574219 31.074219 22.609375 31.128906 22.660156 C 31.234375 22.753906 31.390625 22.894531 31.609375 23.046875 C 31.664062 23.085938 31.71875 23.128906 31.78125 23.171875 C 31.839844 23.210938 31.90625 23.253906 31.972656 23.296875 C 32.007812 23.320312 32.042969 23.339844 32.078125 23.363281 C 32.113281 23.386719 32.148438 23.40625 32.1875 23.429688 C 32.261719 23.472656 32.339844 23.519531 32.421875 23.558594 C 32.746094 23.738281 33.128906 23.914062 33.558594 24.070312 C 34.277344 24.332031 35.140625 24.535156 36.074219 24.613281 C 35.574219 24.59375 35.074219 24.542969 34.585938 24.464844 C 34.511719 24.449219 34.433594 24.4375 34.359375 24.425781 C 34.285156 24.410156 34.207031 24.394531 34.132812 24.378906 C 34.058594 24.363281 33.984375 24.351562 33.910156 24.335938 C 33.835938 24.316406 33.761719 24.300781 33.6875 24.28125 C 33.613281 24.265625 33.539062 24.246094 33.464844 24.226562 C 33.394531 24.207031 33.320312 24.1875 33.246094 24.167969 C 33.175781 24.148438 33.105469 24.125 33.03125 24.105469 C 32.960938 24.082031 32.890625 24.058594 32.820312 24.035156 C 31.6875 23.660156 30.660156 23.105469 29.871094 22.410156 C 29.480469 22.058594 29.144531 21.679688 28.886719 21.296875 C 28.632812 20.910156 28.449219 20.523438 28.335938 20.183594 C 28.320312 20.144531 28.304688 20.101562 28.292969 20.0625 C 28.28125 20.019531 28.269531 19.980469 28.261719 19.945312 C 28.238281 19.867188 28.214844 19.792969 28.199219 19.726562 C 28.171875 19.585938 28.144531 19.46875 28.132812 19.371094 C 28.105469 19.179688 28.089844 19.074219 28.089844 19.074219 C 28.089844 19.074219 28.082031 19.175781 28.074219 19.375 C 28.070312 19.476562 28.078125 19.597656 28.082031 19.742188 C 28.085938 19.816406 28.09375 19.894531 28.105469 19.976562 C 28.109375 20.015625 28.113281 20.058594 28.121094 20.101562 C 28.125 20.148438 28.136719 20.191406 28.144531 20.238281 C 28.210938 20.601562 28.332031 21.042969 28.558594 21.488281 C 28.777344 21.9375 29.082031 22.398438 29.46875 22.828125 C 30.238281 23.6875 31.308594 24.402344 32.519531 24.882812 C 32.59375 24.914062 32.671875 24.941406 32.746094 24.96875 C 32.824219 24.996094 32.902344 25.023438 32.976562 25.050781 C 33.054688 25.078125 33.132812 25.101562 33.210938 25.128906 C 33.289062 25.152344 33.371094 25.179688 33.449219 25.199219 C 33.527344 25.222656 33.609375 25.246094 33.6875 25.269531 C 33.769531 25.289062 33.847656 25.308594 33.929688 25.328125 C 34.011719 25.347656 34.089844 25.367188 34.171875 25.382812 C 34.253906 25.402344 34.335938 25.417969 34.417969 25.433594 C 35.074219 25.5625 35.746094 25.625 36.417969 25.640625 C 37.089844 25.648438 37.761719 25.609375 38.417969 25.503906 C 38.582031 25.476562 38.746094 25.449219 38.910156 25.414062 C 38.988281 25.398438 39.070312 25.382812 39.152344 25.363281 C 39.230469 25.34375 39.3125 25.324219 39.390625 25.304688 C 39.550781 25.265625 39.707031 25.21875 39.863281 25.175781 C 40.019531 25.125 40.175781 25.078125 40.328125 25.023438 C 40.9375 24.808594 41.515625 24.539062 42.039062 24.226562 C 42.5625 23.910156 43.039062 23.546875 43.441406 23.15625 C 43.847656 22.765625 44.179688 22.335938 44.429688 21.917969 C 44.683594 21.503906 44.851562 21.09375 44.953125 20.742188 C 44.980469 20.65625 45.003906 20.570312 45.023438 20.492188 C 45.042969 20.414062 45.054688 20.335938 45.066406 20.265625 C 45.078125 20.195312 45.09375 20.132812 45.097656 20.070312 C 45.105469 20.007812 45.113281 19.953125 45.117188 19.90625 C 45.121094 19.855469 45.125 19.8125 45.128906 19.777344 C 45.132812 19.738281 45.132812 19.707031 45.132812 19.679688 C 45.132812 19.628906 45.132812 19.601562 45.132812 19.601562 C 45.132812 19.601562 45.128906 19.628906 45.117188 19.679688 C 45.113281 19.703125 45.105469 19.734375 45.097656 19.769531 Z M 45.097656 19.769531 " clip-rule="nonzero"/></clipPath><clipPath id="96e3a8a3ad"><path d="M 45.097656 19.769531 C 45.085938 19.804688 45.074219 19.847656 45.0625 19.894531 C 45.046875 19.941406 45.03125 19.992188 45.015625 20.050781 C 45 20.109375 44.972656 20.167969 44.949219 20.234375 C 44.925781 20.296875 44.902344 20.371094 44.871094 20.441406 C 44.839844 20.515625 44.804688 20.589844 44.769531 20.671875 C 44.617188 20.984375 44.398438 21.339844 44.117188 21.695312 C 43.832031 22.046875 43.476562 22.394531 43.066406 22.707031 C 42.652344 23.019531 42.1875 23.304688 41.683594 23.550781 C 41.34375 23.714844 40.984375 23.859375 40.613281 23.988281 L 40.695312 23.957031 L 40.804688 23.910156 L 41.019531 23.820312 C 41.089844 23.785156 41.160156 23.753906 41.230469 23.71875 L 41.335938 23.667969 L 41.441406 23.613281 C 41.511719 23.578125 41.578125 23.542969 41.648438 23.503906 C 41.714844 23.464844 41.785156 23.425781 41.851562 23.382812 C 42.121094 23.222656 42.378906 23.046875 42.621094 22.851562 C 42.683594 22.800781 42.746094 22.753906 42.804688 22.699219 C 42.863281 22.648438 42.921875 22.597656 42.980469 22.546875 C 43.089844 22.4375 43.203125 22.328125 43.308594 22.214844 C 43.417969 22.101562 43.515625 21.976562 43.613281 21.859375 C 43.703125 21.734375 43.796875 21.609375 43.878906 21.476562 C 43.960938 21.351562 44.035156 21.210938 44.105469 21.078125 C 44.136719 21.007812 44.171875 20.941406 44.203125 20.871094 L 44.226562 20.820312 L 44.246094 20.765625 C 44.261719 20.730469 44.273438 20.695312 44.289062 20.660156 C 44.300781 20.625 44.3125 20.589844 44.328125 20.554688 C 44.339844 20.519531 44.351562 20.484375 44.363281 20.449219 C 44.382812 20.378906 44.40625 20.308594 44.421875 20.234375 C 44.457031 20.089844 44.488281 19.949219 44.507812 19.808594 C 44.53125 19.667969 44.535156 19.523438 44.542969 19.386719 C 44.542969 19.320312 44.542969 19.25 44.542969 19.183594 C 44.539062 19.148438 44.539062 19.117188 44.539062 19.082031 C 44.539062 19.050781 44.535156 19.015625 44.53125 18.984375 C 44.488281 18.457031 44.335938 17.996094 44.148438 17.632812 C 44.125 17.589844 44.101562 17.542969 44.078125 17.5 C 44.058594 17.457031 44.035156 17.414062 44.007812 17.375 C 43.957031 17.296875 43.910156 17.21875 43.863281 17.148438 C 43.808594 17.078125 43.761719 17.011719 43.714844 16.949219 C 43.664062 16.890625 43.617188 16.832031 43.570312 16.78125 C 43.527344 16.726562 43.480469 16.679688 43.4375 16.632812 C 43.394531 16.589844 43.355469 16.546875 43.316406 16.511719 C 43.234375 16.441406 43.167969 16.378906 43.113281 16.332031 C 43 16.242188 42.9375 16.195312 42.9375 16.195312 C 42.9375 16.195312 42.984375 16.253906 43.070312 16.371094 C 43.113281 16.429688 43.164062 16.503906 43.222656 16.589844 C 43.25 16.636719 43.28125 16.683594 43.3125 16.734375 C 43.34375 16.785156 43.378906 16.839844 43.410156 16.898438 C 43.441406 16.957031 43.476562 17.019531 43.511719 17.085938 C 43.542969 17.152344 43.574219 17.222656 43.609375 17.292969 C 43.644531 17.367188 43.671875 17.449219 43.707031 17.527344 C 43.722656 17.566406 43.738281 17.609375 43.75 17.652344 C 43.765625 17.695312 43.78125 17.738281 43.796875 17.78125 C 43.90625 18.132812 43.96875 18.550781 43.949219 18.996094 C 43.949219 19.027344 43.949219 19.054688 43.945312 19.082031 C 43.945312 19.109375 43.941406 19.136719 43.9375 19.164062 C 43.929688 19.222656 43.925781 19.277344 43.917969 19.335938 C 43.898438 19.449219 43.882812 19.5625 43.847656 19.679688 C 43.820312 19.792969 43.78125 19.90625 43.742188 20.019531 C 43.722656 20.078125 43.695312 20.132812 43.671875 20.1875 C 43.660156 20.21875 43.652344 20.246094 43.636719 20.273438 C 43.625 20.300781 43.609375 20.328125 43.597656 20.355469 C 43.582031 20.382812 43.566406 20.410156 43.554688 20.441406 L 43.535156 20.480469 L 43.511719 20.523438 C 43.5 20.535156 43.492188 20.550781 43.484375 20.566406 C 43.519531 20.496094 43.550781 20.425781 43.582031 20.355469 C 43.726562 20.011719 43.820312 19.644531 43.835938 19.277344 C 43.855469 18.90625 43.804688 18.539062 43.699219 18.199219 C 43.59375 17.855469 43.433594 17.535156 43.234375 17.25 C 43.039062 16.964844 42.808594 16.710938 42.5625 16.488281 C 42.316406 16.269531 42.054688 16.078125 41.789062 15.910156 C 41.523438 15.742188 41.253906 15.601562 40.984375 15.484375 C 40.949219 15.46875 40.914062 15.453125 40.882812 15.4375 C 40.847656 15.421875 40.816406 15.410156 40.78125 15.394531 C 40.714844 15.371094 40.648438 15.34375 40.582031 15.316406 C 40.449219 15.269531 40.320312 15.21875 40.1875 15.179688 C 39.667969 15.015625 39.179688 14.921875 38.742188 14.867188 C 38.308594 14.804688 37.925781 14.796875 37.609375 14.792969 C 37.453125 14.792969 37.316406 14.792969 37.191406 14.804688 C 37.070312 14.808594 36.96875 14.816406 36.886719 14.824219 C 36.71875 14.839844 36.628906 14.847656 36.628906 14.847656 C 36.628906 14.847656 36.71875 14.859375 36.882812 14.882812 C 36.964844 14.890625 37.066406 14.90625 37.1875 14.925781 C 37.304688 14.941406 37.441406 14.96875 37.59375 14.996094 C 37.894531 15.050781 38.257812 15.132812 38.667969 15.246094 C 39.074219 15.363281 39.519531 15.523438 39.984375 15.734375 C 40.101562 15.78125 40.214844 15.84375 40.332031 15.898438 C 40.390625 15.929688 40.449219 15.960938 40.507812 15.992188 C 40.535156 16.007812 40.566406 16.023438 40.59375 16.039062 C 40.625 16.058594 40.652344 16.074219 40.683594 16.089844 C 40.914062 16.222656 41.144531 16.375 41.367188 16.542969 C 41.585938 16.710938 41.800781 16.894531 41.992188 17.097656 C 42.183594 17.300781 42.355469 17.519531 42.492188 17.746094 C 42.636719 17.976562 42.738281 18.21875 42.800781 18.464844 C 42.863281 18.710938 42.882812 18.960938 42.867188 19.210938 C 42.851562 19.382812 42.816406 19.550781 42.761719 19.714844 C 42.785156 19.601562 42.800781 19.496094 42.804688 19.390625 C 42.816406 19.101562 42.761719 18.847656 42.683594 18.636719 C 42.605469 18.421875 42.492188 18.25 42.390625 18.117188 C 42.378906 18.101562 42.367188 18.082031 42.355469 18.066406 C 42.34375 18.050781 42.328125 18.035156 42.316406 18.023438 C 42.289062 17.992188 42.265625 17.964844 42.246094 17.941406 C 42.195312 17.894531 42.15625 17.851562 42.121094 17.820312 C 42.089844 17.789062 42.058594 17.765625 42.039062 17.746094 C 42.023438 17.730469 42.011719 17.722656 42.011719 17.722656 C 42.011719 17.722656 42.019531 17.734375 42.027344 17.757812 C 42.039062 17.78125 42.058594 17.8125 42.078125 17.855469 C 42.09375 17.898438 42.117188 17.949219 42.144531 18.007812 C 42.152344 18.039062 42.164062 18.070312 42.179688 18.105469 C 42.183594 18.121094 42.191406 18.140625 42.199219 18.15625 C 42.203125 18.175781 42.207031 18.191406 42.214844 18.210938 C 42.261719 18.359375 42.296875 18.539062 42.308594 18.722656 C 42.316406 18.90625 42.289062 19.101562 42.230469 19.300781 C 42.167969 19.496094 42.066406 19.707031 41.898438 19.929688 L 41.867188 19.972656 L 41.832031 20.015625 C 41.804688 20.042969 41.785156 20.070312 41.757812 20.097656 C 41.734375 20.128906 41.707031 20.15625 41.679688 20.183594 C 41.65625 20.214844 41.625 20.242188 41.597656 20.269531 L 41.550781 20.3125 C 41.539062 20.328125 41.519531 20.339844 41.503906 20.355469 C 41.472656 20.382812 41.441406 20.414062 41.410156 20.441406 C 41.339844 20.496094 41.273438 20.554688 41.199219 20.609375 C 41.128906 20.667969 41.046875 20.71875 40.96875 20.777344 C 40.925781 20.800781 40.882812 20.828125 40.84375 20.855469 L 40.78125 20.894531 C 40.757812 20.90625 40.734375 20.917969 40.714844 20.933594 C 40.667969 20.957031 40.625 20.984375 40.582031 21.007812 C 40.535156 21.03125 40.488281 21.054688 40.441406 21.082031 C 40.417969 21.09375 40.398438 21.105469 40.375 21.117188 L 40.300781 21.152344 C 40.253906 21.175781 40.207031 21.199219 40.15625 21.222656 C 40.058594 21.265625 39.960938 21.3125 39.855469 21.351562 L 39.703125 21.414062 L 39.542969 21.46875 C 39.492188 21.488281 39.4375 21.507812 39.382812 21.523438 L 39.222656 21.578125 L 39.058594 21.625 C 39.003906 21.640625 38.949219 21.660156 38.890625 21.671875 C 38.445312 21.792969 37.984375 21.878906 37.523438 21.933594 C 37.289062 21.957031 37.058594 21.980469 36.828125 21.988281 C 36.773438 21.992188 36.714844 21.996094 36.65625 22 C 36.601562 22.003906 36.542969 22 36.488281 22.003906 C 36.429688 22.003906 36.375 22.003906 36.316406 22.007812 C 36.261719 22.003906 36.203125 22.003906 36.148438 22.003906 C 35.253906 21.996094 34.425781 21.878906 33.746094 21.703125 C 33.40625 21.617188 33.101562 21.523438 32.839844 21.425781 C 32.582031 21.320312 32.355469 21.230469 32.183594 21.140625 C 32.09375 21.097656 32.019531 21.054688 31.953125 21.019531 C 31.882812 20.984375 31.832031 20.953125 31.785156 20.925781 C 31.742188 20.902344 31.707031 20.882812 31.683594 20.867188 C 31.660156 20.855469 31.648438 20.847656 31.648438 20.847656 C 31.648438 20.847656 31.660156 20.859375 31.675781 20.878906 C 31.6875 20.902344 31.714844 20.929688 31.75 20.972656 C 31.785156 21.011719 31.824219 21.0625 31.878906 21.117188 C 31.933594 21.171875 31.996094 21.238281 32.074219 21.304688 C 32.222656 21.445312 32.417969 21.605469 32.667969 21.769531 C 32.914062 21.933594 33.210938 22.105469 33.558594 22.257812 C 34.246094 22.570312 35.128906 22.816406 36.105469 22.902344 C 36.164062 22.90625 36.226562 22.914062 36.289062 22.917969 C 36.347656 22.921875 36.410156 22.921875 36.472656 22.925781 C 36.535156 22.929688 36.597656 22.933594 36.660156 22.933594 C 36.691406 22.9375 36.722656 22.9375 36.757812 22.9375 C 36.347656 22.960938 35.957031 22.964844 35.589844 22.953125 C 35.074219 22.929688 34.601562 22.875 34.183594 22.804688 C 33.769531 22.730469 33.410156 22.644531 33.121094 22.558594 C 32.832031 22.472656 32.601562 22.398438 32.449219 22.335938 C 32.375 22.308594 32.316406 22.285156 32.273438 22.273438 C 32.238281 22.253906 32.214844 22.246094 32.214844 22.246094 C 32.214844 22.246094 32.234375 22.261719 32.269531 22.285156 C 32.304688 22.308594 32.355469 22.34375 32.425781 22.390625 C 32.5625 22.480469 32.769531 22.609375 33.046875 22.75 C 33.324219 22.886719 33.675781 23.042969 34.09375 23.179688 C 34.507812 23.320312 34.992188 23.449219 35.53125 23.535156 C 36.070312 23.621094 36.664062 23.667969 37.296875 23.65625 C 37.53125 23.652344 37.773438 23.640625 38.019531 23.617188 C 37.816406 23.648438 37.609375 23.671875 37.40625 23.695312 C 37.269531 23.707031 37.136719 23.71875 37 23.730469 C 36.867188 23.734375 36.734375 23.742188 36.605469 23.746094 C 35.546875 23.78125 34.554688 23.679688 33.714844 23.503906 C 33.292969 23.417969 32.910156 23.316406 32.570312 23.203125 C 32.488281 23.179688 32.40625 23.144531 32.328125 23.117188 C 32.289062 23.105469 32.25 23.089844 32.214844 23.078125 C 32.175781 23.0625 32.140625 23.050781 32.101562 23.035156 C 32.03125 23.007812 31.960938 22.980469 31.894531 22.953125 C 31.828125 22.925781 31.765625 22.898438 31.707031 22.875 C 31.472656 22.765625 31.285156 22.679688 31.160156 22.609375 C 31.097656 22.578125 31.046875 22.554688 31.015625 22.535156 C 30.984375 22.515625 30.96875 22.507812 30.96875 22.507812 C 30.96875 22.507812 30.980469 22.519531 31.007812 22.546875 C 31.035156 22.574219 31.074219 22.609375 31.128906 22.660156 C 31.234375 22.753906 31.390625 22.894531 31.609375 23.046875 C 31.664062 23.085938 31.71875 23.128906 31.78125 23.171875 C 31.839844 23.210938 31.90625 23.253906 31.972656 23.296875 C 32.007812 23.320312 32.042969 23.339844 32.078125 23.363281 C 32.113281 23.386719 32.148438 23.40625 32.1875 23.429688 C 32.261719 23.472656 32.339844 23.519531 32.421875 23.558594 C 32.746094 23.738281 33.128906 23.914062 33.558594 24.070312 C 34.277344 24.332031 35.140625 24.535156 36.074219 24.613281 C 35.574219 24.59375 35.074219 24.542969 34.585938 24.464844 C 34.511719 24.449219 34.433594 24.4375 34.359375 24.425781 C 34.285156 24.410156 34.207031 24.394531 34.132812 24.378906 C 34.058594 24.363281 33.984375 24.351562 33.910156 24.335938 C 33.835938 24.316406 33.761719 24.300781 33.6875 24.28125 C 33.613281 24.265625 33.539062 24.246094 33.464844 24.226562 C 33.394531 24.207031 33.320312 24.1875 33.246094 24.167969 C 33.175781 24.148438 33.105469 24.125 33.03125 24.105469 C 32.960938 24.082031 32.890625 24.058594 32.820312 24.035156 C 31.6875 23.660156 30.660156 23.105469 29.871094 22.410156 C 29.480469 22.058594 29.144531 21.679688 28.886719 21.296875 C 28.632812 20.910156 28.449219 20.523438 28.335938 20.183594 C 28.320312 20.144531 28.304688 20.101562 28.292969 20.0625 C 28.28125 20.019531 28.269531 19.980469 28.261719 19.945312 C 28.238281 19.867188 28.214844 19.792969 28.199219 19.726562 C 28.171875 19.585938 28.144531 19.46875 28.132812 19.371094 C 28.105469 19.179688 28.089844 19.074219 28.089844 19.074219 C 28.089844 19.074219 28.082031 19.175781 28.074219 19.375 C 28.070312 19.476562 28.078125 19.597656 28.082031 19.742188 C 28.085938 19.816406 28.09375 19.894531 28.105469 19.976562 C 28.109375 20.015625 28.113281 20.058594 28.121094 20.101562 C 28.125 20.148438 28.136719 20.191406 28.144531 20.238281 C 28.210938 20.601562 28.332031 21.042969 28.558594 21.488281 C 28.777344 21.9375 29.082031 22.398438 29.46875 22.828125 C 30.238281 23.6875 31.308594 24.402344 32.519531 24.882812 C 32.59375 24.914062 32.671875 24.941406 32.746094 24.96875 C 32.824219 24.996094 32.902344 25.023438 32.976562 25.050781 C 33.054688 25.078125 33.132812 25.101562 33.210938 25.128906 C 33.289062 25.152344 33.371094 25.179688 33.449219 25.199219 C 33.527344 25.222656 33.609375 25.246094 33.6875 25.269531 C 33.769531 25.289062 33.847656 25.308594 33.929688 25.328125 C 34.011719 25.347656 34.089844 25.367188 34.171875 25.382812 C 34.253906 25.402344 34.335938 25.417969 34.417969 25.433594 C 35.074219 25.5625 35.746094 25.625 36.417969 25.640625 C 37.089844 25.648438 37.761719 25.609375 38.417969 25.503906 C 38.582031 25.476562 38.746094 25.449219 38.910156 25.414062 C 38.988281 25.398438 39.070312 25.382812 39.152344 25.363281 C 39.230469 25.34375 39.3125 25.324219 39.390625 25.304688 C 39.550781 25.265625 39.707031 25.21875 39.863281 25.175781 C 40.019531 25.125 40.175781 25.078125 40.328125 25.023438 C 40.9375 24.808594 41.515625 24.539062 42.039062 24.226562 C 42.5625 23.910156 43.039062 23.546875 43.441406 23.15625 C 43.847656 22.765625 44.179688 22.335938 44.429688 21.917969 C 44.683594 21.503906 44.851562 21.09375 44.953125 20.742188 C 44.980469 20.65625 45.003906 20.570312 45.023438 20.492188 C 45.042969 20.414062 45.054688 20.335938 45.066406 20.265625 C 45.078125 20.195312 45.09375 20.132812 45.097656 20.070312 C 45.105469 20.007812 45.113281 19.953125 45.117188 19.90625 C 45.121094 19.855469 45.125 19.8125 45.128906 19.777344 C 45.132812 19.738281 45.132812 19.707031 45.132812 19.679688 C 45.132812 19.628906 45.132812 19.601562 45.132812 19.601562 C 45.132812 19.601562 45.128906 19.628906 45.117188 19.679688 C 45.113281 19.703125 45.105469 19.734375 45.097656 19.769531 " clip-rule="nonzero"/></clipPath><radialGradient gradientTransform="matrix(0.992528, 0, 0, 1.007472, 36.604009, 20.217042)" gradientUnits="userSpaceOnUse" r="7.171265" cx="0" id="2d92f66744" cy="0" fx="0" fy="0"><stop stop-opacity="1" stop-color="rgb(94.099426%, 61.004639%, 6.494141%)" offset="0"/><stop stop-opacity="1" stop-color="rgb(94.099426%, 60.627747%, 6.694031%)" offset="0.0078125"/><stop stop-opacity="1" stop-color="rgb(94.099426%, 60.400391%, 6.698608%)" offset="0.0195312"/><stop stop-opacity="1" stop-color="rgb(94.099426%, 60.169983%, 6.698608%)" offset="0.0234375"/><stop stop-opacity="1" stop-color="rgb(94.099426%, 59.791565%, 6.70166%)" offset="0.0351562"/><stop stop-opacity="1" stop-color="rgb(94.099426%, 59.599304%, 6.90155%)" offset="0.0390625"/><stop stop-opacity="1" stop-color="rgb(94.099426%, 59.599304%, 7.098389%)" offset="0.0429688"/><stop stop-opacity="1" stop-color="rgb(94.099426%, 59.410095%, 7.099915%)" offset="0.046875"/><stop stop-opacity="1" stop-color="rgb(94.099426%, 59.034729%, 7.099915%)" offset="0.0507812"/><stop stop-opacity="1" stop-color="rgb(94.099426%, 58.824158%, 7.099915%)" offset="0.0625"/><stop stop-opacity="1" stop-color="rgb(94.099426%, 58.782959%, 7.115173%)" offset="0.0664062"/><stop stop-opacity="1" stop-color="rgb(94.099426%, 58.581543%, 7.315063%)" offset="0.0703125"/><stop stop-opacity="1" stop-color="rgb(94.099426%, 58.200073%, 7.499695%)" offset="0.0820312"/><stop stop-opacity="1" stop-color="rgb(94.099426%, 57.818604%, 7.499695%)" offset="0.0859375"/><stop stop-opacity="1" stop-color="rgb(94.099426%, 57.466125%, 7.649231%)" offset="0.0976562"/><stop stop-opacity="1" stop-color="rgb(94.099426%, 57.284546%, 7.798767%)" offset="0.109375"/><stop stop-opacity="1" stop-color="rgb(94.099426%, 57.084656%, 7.798767%)" offset="0.113281"/><stop stop-opacity="1" stop-color="rgb(94.099426%, 56.703186%, 7.798767%)" offset="0.125"/><stop stop-opacity="1" stop-color="rgb(94.099426%, 56.321716%, 7.980347%)" offset="0.128906"/><stop stop-opacity="1" stop-color="rgb(94.099426%, 56.117249%, 8.180237%)" offset="0.140625"/><stop stop-opacity="1" stop-color="rgb(94.099426%, 56.077576%, 8.198547%)" offset="0.144531"/><stop stop-opacity="1" stop-color="rgb(94.099426%, 55.870056%, 8.198547%)" offset="0.148438"/><stop stop-opacity="1" stop-color="rgb(94.099426%, 55.491638%, 8.198547%)" offset="0.160156"/><stop stop-opacity="1" stop-color="rgb(94.099426%, 55.110168%, 8.387756%)" offset="0.171875"/><stop stop-opacity="1" stop-color="rgb(94.099426%, 54.734802%, 8.587646%)" offset="0.175781"/><stop stop-opacity="1" stop-color="rgb(94.099426%, 54.502869%, 8.599854%)" offset="0.1875"/><stop stop-opacity="1" stop-color="rgb(94.099426%, 54.272461%, 8.599854%)" offset="0.191406"/><stop stop-opacity="1" stop-color="rgb(94.099426%, 53.892517%, 8.601379%)" offset="0.203125"/><stop stop-opacity="1" stop-color="rgb(94.099426%, 53.69873%, 8.798218%)" offset="0.207031"/><stop stop-opacity="1" stop-color="rgb(94.099426%, 53.69873%, 8.996582%)" offset="0.210938"/><stop stop-opacity="1" stop-color="rgb(94.099426%, 53.511047%, 8.999634%)" offset="0.214844"/><stop stop-opacity="1" stop-color="rgb(94.099426%, 53.311157%, 8.999634%)" offset="0.21875"/><stop stop-opacity="1" stop-color="rgb(94.099426%, 53.29895%, 8.999634%)" offset="0.222656"/><stop stop-opacity="1" stop-color="rgb(94.099426%, 53.09906%, 8.999634%)" offset="0.226562"/><stop stop-opacity="1" stop-color="rgb(94.099426%, 52.89917%, 8.999634%)" offset="0.230469"/><stop stop-opacity="1" stop-color="rgb(94.099426%, 52.885437%, 8.999634%)" offset="0.234375"/><stop stop-opacity="1" stop-color="rgb(94.099426%, 52.685547%, 9.008789%)" offset="0.238281"/><stop stop-opacity="1" stop-color="rgb(94.099426%, 52.352905%, 9.208679%)" offset="0.242188"/><stop stop-opacity="1" stop-color="rgb(94.099426%, 52.107239%, 9.399414%)" offset="0.253906"/><stop stop-opacity="1" stop-color="rgb(94.099426%, 51.902771%, 9.399414%)" offset="0.257812"/><stop stop-opacity="1" stop-color="rgb(94.099426%, 51.699829%, 9.399414%)" offset="0.265625"/><stop stop-opacity="1" stop-color="rgb(94.099426%, 51.49231%, 9.407043%)" offset="0.273438"/><stop stop-opacity="1" stop-color="rgb(94.099426%, 51.187134%, 9.606934%)" offset="0.277344"/><stop stop-opacity="1" stop-color="rgb(94.099426%, 50.796509%, 9.799194%)" offset="0.285156"/><stop stop-opacity="1" stop-color="rgb(94.099426%, 50.59967%, 9.799194%)" offset="0.292969"/><stop stop-opacity="1" stop-color="rgb(94.099426%, 50.408936%, 9.799194%)" offset="0.300781"/><stop stop-opacity="1" stop-color="rgb(94.099426%, 50.109863%, 9.898376%)" offset="0.308594"/><stop stop-opacity="1" stop-color="rgb(94.099426%, 49.899292%, 10.098267%)" offset="0.3125"/><stop stop-opacity="1" stop-color="rgb(94.099426%, 49.694824%, 10.198975%)" offset="0.320312"/><stop stop-opacity="1" stop-color="rgb(94.099426%, 49.397278%, 10.198975%)" offset="0.328125"/><stop stop-opacity="1" stop-color="rgb(94.099426%, 49.099731%, 10.198975%)" offset="0.335938"/><stop stop-opacity="1" stop-color="rgb(94.099426%, 48.89679%, 10.301208%)" offset="0.34375"/><stop stop-opacity="1" stop-color="rgb(94.099426%, 48.686218%, 10.501099%)" offset="0.351562"/><stop stop-opacity="1" stop-color="rgb(94.099426%, 48.381042%, 10.598755%)" offset="0.355469"/><stop stop-opacity="1" stop-color="rgb(94.099426%, 47.991943%, 10.598755%)" offset="0.363281"/><stop stop-opacity="1" stop-color="rgb(94.099426%, 47.799683%, 10.598755%)" offset="0.371094"/><stop stop-opacity="1" stop-color="rgb(94.099426%, 47.654724%, 10.791016%)" offset="0.378906"/><stop stop-opacity="1" stop-color="rgb(94.099426%, 47.315979%, 10.990906%)" offset="0.386719"/><stop stop-opacity="1" stop-color="rgb(94.099426%, 47.102356%, 10.998535%)" offset="0.394531"/><stop stop-opacity="1" stop-color="rgb(94.099426%, 46.887207%, 10.998535%)" offset="0.402344"/><stop stop-opacity="1" stop-color="rgb(94.099426%, 46.496582%, 10.998535%)" offset="0.410156"/><stop stop-opacity="1" stop-color="rgb(94.099426%, 46.105957%, 11.192322%)" offset="0.417969"/><stop stop-opacity="1" stop-color="rgb(94.099426%, 45.904541%, 11.393738%)" offset="0.425781"/><stop stop-opacity="1" stop-color="rgb(94.099426%, 45.799255%, 11.399841%)" offset="0.433594"/><stop stop-opacity="1" stop-color="rgb(94.099426%, 45.588684%, 11.399841%)" offset="0.4375"/><stop stop-opacity="1" stop-color="rgb(94.099426%, 45.288086%, 11.399841%)" offset="0.441406"/><stop stop-opacity="1" stop-color="rgb(94.099426%, 44.902039%, 11.59668%)" offset="0.457031"/><stop stop-opacity="1" stop-color="rgb(94.099426%, 44.511414%, 11.795044%)" offset="0.464844"/><stop stop-opacity="1" stop-color="rgb(94.099426%, 44.206238%, 11.799622%)" offset="0.472656"/><stop stop-opacity="1" stop-color="rgb(94.099426%, 43.997192%, 11.799622%)" offset="0.476562"/><stop stop-opacity="1" stop-color="rgb(94.099426%, 43.79425%, 11.799622%)" offset="0.484375"/><stop stop-opacity="1" stop-color="rgb(94.099426%, 43.495178%, 11.898804%)" offset="0.492188"/><stop stop-opacity="1" stop-color="rgb(94.099426%, 43.199158%, 12.098694%)" offset="0.5"/><stop stop-opacity="1" stop-color="rgb(94.099426%, 43.099976%, 12.199402%)" offset="0.507812"/><stop stop-opacity="1" stop-color="rgb(94.099426%, 42.918396%, 12.199402%)" offset="0.511719"/><stop stop-opacity="1" stop-color="rgb(94.099426%, 42.567444%, 12.199402%)" offset="0.515625"/><stop stop-opacity="1" stop-color="rgb(94.099426%, 42.399597%, 12.199402%)" offset="0.527344"/><stop stop-opacity="1" stop-color="rgb(94.099426%, 42.391968%, 12.199402%)" offset="0.53125"/><stop stop-opacity="1" stop-color="rgb(94.099426%, 42.192078%, 12.200928%)" offset="0.535156"/><stop stop-opacity="1" stop-color="rgb(94.099426%, 41.999817%, 12.350464%)" offset="0.539062"/><stop stop-opacity="1" stop-color="rgb(94.099426%, 41.80603%, 12.498474%)" offset="0.542969"/><stop stop-opacity="1" stop-color="rgb(94.099426%, 41.426086%, 12.5%)" offset="0.546875"/><stop stop-opacity="1" stop-color="rgb(94.099426%, 41.218567%, 12.5%)" offset="0.558594"/><stop stop-opacity="1" stop-color="rgb(94.099426%, 41.178894%, 12.5%)" offset="0.5625"/><stop stop-opacity="1" stop-color="rgb(94.099426%, 40.9729%, 12.506104%)" offset="0.566406"/><stop stop-opacity="1" stop-color="rgb(94.099426%, 40.592957%, 12.705994%)" offset="0.578125"/><stop stop-opacity="1" stop-color="rgb(94.099426%, 40.39917%, 12.89978%)" offset="0.582031"/><stop stop-opacity="1" stop-color="rgb(94.099426%, 40.206909%, 12.89978%)" offset="0.585938"/><stop stop-opacity="1" stop-color="rgb(94.099426%, 39.828491%, 12.89978%)" offset="0.589844"/><stop stop-opacity="1" stop-color="rgb(94.099426%, 39.620972%, 12.89978%)" offset="0.601562"/><stop stop-opacity="1" stop-color="rgb(94.099426%, 39.579773%, 12.89978%)" offset="0.605469"/><stop stop-opacity="1" stop-color="rgb(94.099426%, 39.375305%, 12.904358%)" offset="0.609375"/><stop stop-opacity="1" stop-color="rgb(94.099426%, 38.993835%, 13.104248%)" offset="0.621094"/><stop stop-opacity="1" stop-color="rgb(94.099426%, 38.606262%, 13.299561%)" offset="0.625"/><stop stop-opacity="1" stop-color="rgb(94.099426%, 38.218689%, 13.299561%)" offset="0.636719"/><stop stop-opacity="1" stop-color="rgb(94.099426%, 38.002014%, 13.299561%)" offset="0.644531"/><stop stop-opacity="1" stop-color="rgb(94.099426%, 37.786865%, 13.302612%)" offset="0.652344"/><stop stop-opacity="1" stop-color="rgb(94.099426%, 37.446594%, 13.502502%)" offset="0.660156"/><stop stop-opacity="1" stop-color="rgb(94.099426%, 37.104797%, 13.697815%)" offset="0.667969"/><stop stop-opacity="1" stop-color="rgb(94.099426%, 36.903381%, 13.699341%)" offset="0.675781"/><stop stop-opacity="1" stop-color="rgb(94.099426%, 36.798096%, 13.699341%)" offset="0.683594"/><stop stop-opacity="1" stop-color="rgb(94.099426%, 36.58905%, 13.699341%)" offset="0.6875"/><stop stop-opacity="1" stop-color="rgb(94.099426%, 36.283875%, 13.703918%)" offset="0.691406"/><stop stop-opacity="1" stop-color="rgb(94.099426%, 35.89325%, 13.903809%)" offset="0.699219"/><stop stop-opacity="1" stop-color="rgb(94.099426%, 35.507202%, 14.099121%)" offset="0.714844"/><stop stop-opacity="1" stop-color="rgb(94.099426%, 35.205078%, 14.099121%)" offset="0.722656"/><stop stop-opacity="1" stop-color="rgb(94.099426%, 34.997559%, 14.099121%)" offset="0.726562"/><stop stop-opacity="1" stop-color="rgb(94.099426%, 34.794617%, 14.202881%)" offset="0.734375"/><stop stop-opacity="1" stop-color="rgb(94.099426%, 34.494019%, 14.402771%)" offset="0.742188"/><stop stop-opacity="1" stop-color="rgb(94.099426%, 34.197998%, 14.498901%)" offset="0.75"/><stop stop-opacity="1" stop-color="rgb(94.099426%, 34.098816%, 14.498901%)" offset="0.757812"/><stop stop-opacity="1" stop-color="rgb(94.099426%, 33.917236%, 14.498901%)" offset="0.761719"/><stop stop-opacity="1" stop-color="rgb(94.099426%, 33.717346%, 14.498901%)" offset="0.765625"/><stop stop-opacity="1" stop-color="rgb(94.099426%, 33.499146%, 14.498901%)" offset="0.769531"/><stop stop-opacity="1" stop-color="rgb(94.099426%, 33.299255%, 14.498901%)" offset="0.773438"/><stop stop-opacity="1" stop-color="rgb(94.099426%, 33.287048%, 14.498901%)" offset="0.777344"/><stop stop-opacity="1" stop-color="rgb(94.099426%, 33.087158%, 14.498901%)" offset="0.78125"/><stop stop-opacity="1" stop-color="rgb(94.099426%, 32.899475%, 14.501953%)" offset="0.785156"/><stop stop-opacity="1" stop-color="rgb(94.099426%, 32.899475%, 14.700317%)" offset="0.789062"/><stop stop-opacity="1" stop-color="rgb(94.099426%, 32.705688%, 14.897156%)" offset="0.792969"/><stop stop-opacity="1" stop-color="rgb(94.099426%, 32.354736%, 14.898682%)" offset="0.796875"/><stop stop-opacity="1" stop-color="rgb(94.099426%, 32.199097%, 14.898682%)" offset="0.808594"/><stop stop-opacity="1" stop-color="rgb(94.099426%, 31.988525%, 14.898682%)" offset="0.8125"/><stop stop-opacity="1" stop-color="rgb(94.099426%, 31.588745%, 14.898682%)" offset="0.816406"/><stop stop-opacity="1" stop-color="rgb(94.099426%, 31.39801%, 14.898682%)" offset="0.824219"/><stop stop-opacity="1" stop-color="rgb(94.099426%, 31.202698%, 15.09552%)" offset="0.832031"/><stop stop-opacity="1" stop-color="rgb(94.099426%, 30.812073%, 15.29541%)" offset="0.839844"/><stop stop-opacity="1" stop-color="rgb(94.099426%, 30.595398%, 15.299988%)" offset="0.847656"/><stop stop-opacity="1" stop-color="rgb(94.099426%, 30.380249%, 15.299988%)" offset="0.855469"/><stop stop-opacity="1" stop-color="rgb(94.099426%, 29.99115%, 15.299988%)" offset="0.863281"/><stop stop-opacity="1" stop-color="rgb(94.099426%, 29.608154%, 15.489197%)" offset="0.878906"/><stop stop-opacity="1" stop-color="rgb(94.099426%, 29.408264%, 15.689087%)" offset="0.882812"/><stop stop-opacity="1" stop-color="rgb(94.099426%, 29.217529%, 15.699768%)" offset="0.886719"/><stop stop-opacity="1" stop-color="rgb(94.099426%, 29.017639%, 15.699768%)" offset="0.890625"/><stop stop-opacity="1" stop-color="rgb(94.099426%, 28.97644%, 15.699768%)" offset="0.894531"/><stop stop-opacity="1" stop-color="rgb(94.099426%, 28.77655%, 15.699768%)" offset="0.898438"/><stop stop-opacity="1" stop-color="rgb(94.099426%, 28.585815%, 15.699768%)" offset="0.902344"/><stop stop-opacity="1" stop-color="rgb(94.099426%, 28.385925%, 15.699768%)" offset="0.90625"/><stop stop-opacity="1" stop-color="rgb(94.099426%, 28.004456%, 15.893555%)" offset="0.917969"/><stop stop-opacity="1" stop-color="rgb(94.099426%, 27.633667%, 16.093445%)" offset="0.925781"/><stop stop-opacity="1" stop-color="rgb(94.099426%, 27.278137%, 16.099548%)" offset="0.941406"/><stop stop-opacity="1" stop-color="rgb(94.099426%, 27.087402%, 16.099548%)" offset="0.945312"/><stop stop-opacity="1" stop-color="rgb(94.099426%, 26.887512%, 16.099548%)" offset="0.949219"/><stop stop-opacity="1" stop-color="rgb(94.099426%, 26.698303%, 16.099548%)" offset="0.953125"/><stop stop-opacity="1" stop-color="rgb(94.099426%, 26.502991%, 16.099548%)" offset="0.957031"/><stop stop-opacity="1" stop-color="rgb(94.099426%, 26.303101%, 16.099548%)" offset="0.964844"/><stop stop-opacity="1" stop-color="rgb(94.099426%, 26.119995%, 16.27655%)" offset="0.972656"/><stop stop-opacity="1" stop-color="rgb(94.099426%, 25.909424%, 16.47644%)" offset="0.976562"/><stop stop-opacity="1" stop-color="rgb(94.099426%, 25.686646%, 16.499329%)" offset="0.980469"/><stop stop-opacity="1" stop-color="rgb(94.099426%, 25.494385%, 16.499329%)" offset="0.988281"/><stop stop-opacity="1" stop-color="rgb(94.099426%, 25.294495%, 16.499329%)" offset="0.992188"/><stop stop-opacity="1" stop-color="rgb(94.099426%, 25.099182%, 16.499329%)" offset="1"/></radialGradient></defs><g clip-path="url(#abaa8d13dd)"><path fill="#ffffff" d="M 0.277344 0 L 141.726562 0 L 141.726562 33.5 L 0.277344 33.5 Z M 0.277344 0 " fill-opacity="1" fill-rule="nonzero"/><path fill="#ffffff" d="M 0.277344 0 L 141.726562 0 L 141.726562 33.5 L 0.277344 33.5 Z M 0.277344 0 " fill-opacity="1" fill-rule="nonzero"/></g><g clip-path="url(#8b59316cc6)"><g clip-path="url(#3adbe7dccc)"><g clip-path="url(#ad085580f3)"><path fill="url(#428bc5b87d)" d="M 28.125 7.777344 L 28.125 18.625 L 45.1875 18.625 L 45.1875 7.777344 Z M 28.125 7.777344 " fill-rule="nonzero"/></g></g></g><g clip-path="url(#e593332089)"><g clip-path="url(#4b4752a201)"><g clip-path="url(#96e3a8a3ad)"><path fill="url(#2d92f66744)" d="M 28.070312 14.792969 L 28.070312 25.644531 L 45.132812 25.644531 L 45.132812 14.792969 Z M 28.070312 14.792969 " fill-rule="nonzero"/></g></g></g></svg>